<?xml version="1.0" encoding="UTF-8"?>
<svg id="Livello_2" data-name="Livello 2" xmlns="http://www.w3.org/2000/svg" viewBox="0 0 907.5 363.75">
  <defs>
    <style>
      .cls-1 {
        fill: #25462b;
      }

      .cls-1, .cls-2, .cls-3, .cls-4, .cls-5, .cls-6, .cls-7, .cls-8, .cls-9, .cls-10, .cls-11, .cls-12, .cls-13, .cls-14 {
        stroke-width: 0px;
      }

      .cls-2 {
        fill: #f3f4f4;
      }

      .cls-3 {
        fill: #dddddf;
      }

      .cls-4 {
        fill: #c7caca;
      }

      .cls-5 {
        fill: #194522;
      }

      .cls-6 {
        fill: #194523;
      }

      .cls-7 {
        fill: #2a4b30;
      }

      .cls-8 {
        fill: #fdfdfd;
      }

      .cls-9 {
        fill: #1e4727;
      }

      .cls-10 {
        fill: #64bc7e;
      }

      .cls-11 {
        fill: #e5e8e7;
      }

      .cls-12 {
        fill: #184522;
      }

      .cls-13 {
        fill: #b5bdb9;
      }

      .cls-14 {
        fill: #3a6947;
      }
    </style>
  </defs>
  <g id="Livello_1-2" data-name="Livello 1">
    <g>
      <path class="cls-8" d="M453.75.07C603.85.07,753.95.08,904.06,0c2.81,0,3.45.63,3.44,3.44-.08,118.95-.08,237.91,0,356.86,0,2.81-.63,3.44-3.44,3.44-300.2-.07-600.41-.07-900.61,0-2.81,0-3.45-.63-3.44-3.44C.08,241.35.08,122.4,0,3.44,0,.63.63,0,3.44,0c150.1.08,300.2.07,450.31.07ZM597.02,237.03h.01c-1.17-.05-2.36-.11-2.14,1.65v-.03c-1.21-.23-2.31-.28-2.37,1.42-1.29.95-2.59,1.9-3.88,2.85-1.52.52-3.03.84-4.68.82-6.12-.09-12.26.23-18.36-.13-3.78-.22-6.32,1.16-8.73,3.8-7.91,8.66-16,17.16-23.89,25.84-2.25,2.47-4.89,4.69-6.76,7.95,31.17,0,61.91-.02,92.65,0,11.82.01,23.47-1.51,34.68-5.06,47.53-15.06,82.41-44.65,102.13-90.88,8.28-19.4,11.39-39.77,6.87-60.73-3.59-16.66-11.44-30.96-24.35-42.36-16.51-14.58-36.18-20.75-57.74-21.13-22.74-.39-45.49-.08-68.23-.1-1.43,0-2.6.22-3.66,1.36-10.87,11.7-21.79,23.34-32.7,35-1.54.84-1.21,1.91-.87,3.42,1.1,4.94,1.7,9.91,1.25,15.08-.54,6.31-1.58,12.51-2.6,18.73-1.17,7.16-2.51,14.29-3.78,21.44-.4.26-1.15.54-1.14.78.34,5.58-1.89,10.94-1.41,16.47.14,1.61,1.26,3.09,1.2,4.94-.3,8.77.93,17.3,4.45,25.43,2.64,6.09,6.24,11.77,10.77,16.37,3.68,3.74,7.71,7.53,12.67,10.03,1.42.72,3.8,2.15,3.58,4.78-.25.23-.51.46-.76.69-1.11-.02-2.23-.04-2.22,1.55ZM292.41,62.9c-.35-.63-.69-1.27-1.04-1.9-26.21,0-52.42-.07-78.63.02-21.36.08-42.71-.25-64.07.25-15.9.37-31.57,1.97-46.92,6.31-22.84,6.46-39.21,20.82-41.23,45.02-2.14,25.81,6.2,42.12,27.87,52.89,14.14,7.02,29.41,10.05,44.89,12.2,23.46,3.27,46.94,6.37,70.38,9.78,8.12,1.18,16.25,2.72,23.82,6.12,8.24,3.69,12.96,12.25,11.58,20.67-1.73,10.57-7.39,16.21-17.45,17.47-11.55,1.45-23.12,1.43-34.75,1.34-41.1-.32-82.2-.3-123.3-.38-.92,0-2.22-.54-2.69.58-.43,1.01.68,1.76,1.19,2.58,6.96,11.08,14.02,22.11,20.85,33.27,1.36,2.22,2.81,2.97,5.35,2.95,37.6-.26,75.2.34,112.79-.4,13.86-.27,27.63-1.39,41.15-4.76,10.99-2.74,21.51-6.57,30.36-13.84,14.34-11.78,18.08-27.57,17.11-45.31-.91-16.61-8.07-29.26-22.15-38.06-7.45-4.66-15.41-8.21-23.84-10.56-26.38-7.37-53.46-10.87-80.55-14.31-11.49-1.46-23.07-2.5-34.35-5.32-9.43-2.36-15.4-10.93-14.5-20.41,1.08-11.31,7.55-17.92,18.26-18.55,12.94-.77,25.89-1.14,38.87-1.03,26.99.24,53.98.04,80.97.1,2.04,0,3.52-.57,4.93-2.04,6.47-6.77,12.95-13.54,19.6-20.13,5.03-4.99,10.32-9.7,15.5-14.54ZM342.64,99.78c-.13.69-.19,1.16-.31,1.62-4.26,16.02-8.52,32.04-12.79,48.06-11.42,42.84-22.82,85.68-34.33,128.5-.72,2.7-.28,3.36,2.51,3.32,10.37-.14,20.75-.26,31.11.06,3.67.11,4.76-1.19,5.63-4.48,15.27-57.7,30.71-115.36,45.98-173.06.88-3.34,2.28-4.09,5.56-4.08,51.86.12,103.71.07,155.57.12,2.41,0,4.18-.5,5.82-2.45,2.97-3.53,6.26-6.78,9.44-10.13,7.96-8.39,15.93-16.76,24.42-25.7-1.6,0-2.55,0-3.49,0-87.34,0-174.69,0-262.03-.05-1.95,0-3.24.62-4.52,1.96-6.45,6.78-12.98,13.5-19.46,20.26-4.94,5.16-9.83,10.37-15.21,16.06h66.1ZM533.33,242.97c-2.52,0-3.97,0-5.43,0-34.74,0-69.48-.04-104.22.07-3,0-3.52-.65-2.74-3.48,4.02-14.67,7.94-29.36,11.73-44.09.7-2.73,1.75-3.67,4.72-3.65,20.24.16,40.49.09,60.73.07,1.56,0,2.98.17,4.36-1.35,5.94-6.57,12.11-12.94,18.19-19.38,5.36-5.66,10.72-11.32,16.52-17.44-1.82-.09-2.9-.19-3.99-.19-41.49,0-82.97.03-124.46-.1-2.93,0-3.76,1.17-4.4,3.6-8.66,32.59-17.39,65.16-26.09,97.75-2.32,8.7-4.57,17.43-6.84,26.11.47.16.58.24.7.24,40.99.03,81.97.05,122.96.1,1.19,0,2.08-.25,2.95-1.16,11.49-12.13,23.03-24.22,35.31-37.11ZM834.34,280.7c1.5,0,3.01-.12,4.5.03,2.69.27,2.84-.66,1.87-2.9-2.64-6.04-4.96-12.22-7.64-18.25-1.03-2.31-.46-3.09,1.76-3.93,6.46-2.43,10.73-7.08,12.8-13.69,3.1-9.87-1.79-18.18-12-20-8.3-1.47-16.71-.21-25.05-.71-2.53-.15-3.17.97-3.54,3.08-3.13,17.92-6.29,35.83-9.53,53.73-.34,1.89-.2,2.8,2.02,2.67,2.49-.15,5-.15,7.49,0,1.9.11,2.6-.6,2.89-2.46.89-5.79,1.97-11.55,2.98-17.32.25-1.42.02-3.17,2.28-3.16,1.96,0,3.79-.41,4.67,2.37,1.53,4.86,3.57,9.56,5.38,14.33q2.35,6.2,9.11,6.21ZM786.66,237.65c1,0,2.01-.12,2.99.02,3.31.48,4.03-.92,3.45-4.01-1.07-5.73-4.47-9.47-9.7-11.4-7.3-2.7-14.74-2.59-21.87.65-6.57,2.98-10.19,8.2-10.32,15.56-.12,6.97,3.69,11.27,9.62,14.26,4.55,2.29,9.45,3.87,13.74,6.68,3.09,2.03,4.03,4.93,2.43,8.02-1.91,3.69-5.47,4.04-9.02,3.96-3.33-.07-6.67-1.36-7.16-4.8-.5-3.46-2.19-3.47-4.7-3.33-1.99.11-4,.11-5.99,0-1.75-.1-2.39.5-2.4,2.32-.02,5.48,2.2,9.86,6.96,12.33,9.12,4.74,18.62,4.91,27.56-.19,11.34-6.47,11.11-21.05-.15-27.64-2.47-1.44-5.09-2.61-7.66-3.88-2.68-1.32-5.43-2.48-7.83-4.33-2.09-1.61-2.95-3.66-2.43-6.21.64-3.13,3.74-5.11,8.12-5.31,3.96-.19,7.05,1.61,7.7,4.96.37,1.91,1.07,2.53,2.9,2.34,1.23-.13,2.49-.02,3.74-.02ZM20.2,232.56c0,.56-.1.87.01,1.01,9.46,12.4,18.95,24.78,28.41,37.19.77,1.01,1.68,1.29,2.89,1.28,6.87-.04,13.75-.08,20.62.01,2.34.03,2.6-.57,1.38-2.48-7.5-11.77-14.94-23.59-22.39-35.39-.54-.85-.97-1.64-2.23-1.64-9.57.04-19.15.02-28.69.02ZM866.94,280.7c3.12,0,6.24,0,9.36,0,7.13.02,7.01,0,7.99-6.95.3-2.15-.29-2.57-2.17-2.55-4.74.06-9.49-.03-14.23.05-1.93.03-2.62-.35-2.21-2.56,2.36-12.73,4.46-25.51,6.82-38.24,1.72-9.27,1.83-9.12-7.51-9.22-2.62-.03-3.39.98-3.79,3.25-3.1,17.92-6.21,35.83-9.47,53.71-.4,2.19.13,2.57,2.1,2.53,4.37-.1,8.74-.03,13.11-.02ZM403.5,337.86c-4.62-5.73-8.72-10.59-12.53-15.67-1.35-1.8-2.87-2.42-4.77-1.94-2.39.6-1.15,2.72-1.18,4.09-.14,6.49.01,12.99-.11,19.48-.04,2.15.7,2.7,2.78,2.73,2.16.03,2.4-.93,2.37-2.67-.08-4.68-.03-9.36-.03-14.83.86.98,1.17,1.3,1.45,1.65,3.85,4.75,7.77,9.44,11.48,14.29,1.24,1.63,2.71,1.69,4.28,1.4,1.91-.36.95-2.04.97-3.09.09-6.87,0-13.74.09-20.6.03-1.87-.39-2.58-2.46-2.6-2.16-.01-2.4.9-2.37,2.66.08,4.71.03,9.43.03,15.11ZM515.74,333.13c0,3.74.06,7.47-.03,11.21-.04,1.58.43,2.2,2.1,2.15,3.86-.13,7.74.14,11.58-.15,6.9-.52,11.78-6.02,11.89-13.02.11-6.66-5.09-12.5-11.9-13.02-3.84-.29-7.72-.04-11.58-.16-1.67-.06-2.13.58-2.09,2.16.09,3.61.03,7.22.03,10.84ZM156.1,333.28c-.02,7.78,5.81,13.62,13.71,13.73,8.01.11,14.26-5.84,14.28-13.61.02-7.81-6.04-13.71-14.15-13.8-7.66-.08-13.82,6-13.84,13.68ZM490.68,333.39c0,3.5.08,7-.03,10.49-.06,1.88.44,2.67,2.49,2.62,4.99-.13,9.99-.04,14.99-.05,1.22,0,2.48.27,2.48-1.75,0-1.89-.78-2.34-2.47-2.3-3.37.08-6.75.04-10.12,0-.79-.01-1.72.35-2.22-.81-1.49-3.44.39-6.37,4.17-6.37,2,0,4-.04,6,.02,1.53.05,2.58-.07,2.51-2.13-.06-1.86-1.02-1.96-2.39-1.94-2.62.04-5.26-.17-7.87.08-2.92.28-2.56-1.61-2.42-3.28.13-1.57-1.11-3.99,2.29-3.81,3.24.18,6.5,0,9.74.07,1.63.04,2.14-.56,2.12-2.19-.01-1.54-.63-1.89-2-1.88-5,.04-10,.07-14.99-.02-1.81-.03-2.38.61-2.33,2.39.11,3.62.03,7.24.03,10.87ZM333.19,333.38h.01c0,3.5.09,7-.04,10.49-.07,1.9.43,2.68,2.48,2.63,5-.13,10-.05,14.99-.05,1.26,0,2.47.2,2.5-1.78.03-1.91-.81-2.31-2.49-2.27-3.37.08-6.75.05-10.12,0-.78-.01-1.71.36-2.21-.82-1.46-3.5.38-6.37,4.17-6.37,1.87,0,3.75,0,5.62,0,1.47,0,2.98.37,2.91-2.1-.06-2.23-1.39-1.92-2.75-1.92-2.37,0-4.77-.18-7.12.06-2.77.29-3.06-1.13-2.87-3.28.17-1.83-.77-4.15,2.71-3.84,2.97.27,5.99.03,8.99.09,1.56.03,2.55-.16,2.53-2.19-.03-1.94-1.08-1.88-2.39-1.87-4.87.01-9.75.07-14.62-.03-1.81-.04-2.39.6-2.34,2.37.11,3.62.03,7.24.03,10.87ZM237.13,346.6v-.14c2.62,0,5.24-.01,7.86,0,1.3,0,2.4.09,2.41-1.85,0-1.99-.96-2.23-2.55-2.2-3.36.06-6.73.05-10.1-.01-.86-.01-1.88.42-2.23-1.18-.99-4.55.02-6.01,4.56-6.01,1.99,0,3.99-.08,5.98.02,1.55.07,2.19-.36,2.19-2.06,0-1.8-.86-2.03-2.31-2-2.74.06-5.49-.12-8.22.05-3.16.19-2.1-2.07-2.12-3.53-.03-1.5-.94-3.69,2.17-3.53,3.23.17,6.48,0,9.72.05,1.48.03,2.25-.31,2.27-2.06.02-1.79-.79-2.02-2.26-2.01-4.86.05-9.73.11-14.58-.02-2.05-.06-2.53.73-2.49,2.6.1,4.73-.04,9.47.07,14.21.07,3.08-1.39,7.24.62,8.92,1.89,1.58,5.92.6,9.01.74ZM597.82,342.43c-.24-1.56.6-2.08,1.11-2.72,3.94-4.99,7.86-10,11.89-14.92.97-1.19,1.43-2.46.98-3.78-.55-1.63-2.14-.78-3.24-.8-5.24-.09-10.48-.03-15.73-.05-1.43,0-2.65-.14-2.61,2.03.04,2.15,1.28,2.01,2.69,2,3.81-.02,7.62,0,11.61,0-.41,2.02-1.59,3.01-2.48,4.14-3.54,4.52-7.09,9.02-10.72,13.45-.96,1.17-1.44,2.44-1.04,3.78.51,1.73,2.11.82,3.19.84,5.49.09,10.98.03,16.48.05,1.41,0,2.69.18,2.65-2.01-.04-2.14-1.28-2.03-2.71-2.03-3.98.02-7.97,0-12.05,0ZM143,347.07c.79-.07,1.54-.09,2.27-.22,4.89-.83,7.84-3.61,8.01-7.51.17-3.87-1.73-5.93-6.91-7.5-1.9-.57-3.81-1.13-5.72-1.67-1.6-.45-2.76-1.28-2.59-3.11.16-1.77,1.53-2.57,3.02-2.92,2.77-.65,5.47-.13,7.96,1.2,1.36.72,2.05.38,2.41-1.02.28-1.1,1.25-2.26-.64-3.01-4.44-1.78-8.91-2.5-13.37-.32-2.9,1.42-4.65,3.83-4.44,7.17.2,3.2,2.11,5.24,5.14,6.19,2.37.74,4.76,1.42,7.15,2.14,1.65.5,3.22,1.35,3.03,3.25-.21,2.06-2.06,2.68-3.84,2.94-2.93.42-5.73-.24-8.33-1.57-1.29-.66-2.06-1.05-2.86.68-.75,1.63-.48,2.51,1.07,3.27,2.75,1.35,5.67,1.81,8.65,2ZM449.74,346.48c2.31-.47,5.03,1.39,5.74-1.75.95-4.23,3.71-4.63,7.2-4.29,1.48.14,3,.15,4.48,0,2.13-.21,3.55.34,4.09,2.62.84,3.59,3.23,4.02,6.51,2.97-3.64-8.2-7.25-16.22-10.74-24.29-.64-1.48-1.62-1.63-2.94-1.57-1.33.06-2.66-.25-3.41,1.47-3.53,8.17-7.16,16.31-10.92,24.85ZM297.8,346.08c-3.63-8.18-7.23-16.2-10.73-24.26-.61-1.41-1.49-1.79-2.87-1.67-1.31.11-2.73-.34-3.48,1.37-3.55,8.17-7.15,16.32-10.88,24.82,2.38-.18,5.04,1.42,5.82-1.84.9-3.74,3.19-4.5,6.56-4.08,1.84.23,3.74.17,5.6,0,1.78-.15,2.83.44,3.26,2.19.83,3.35,2.82,4.76,6.72,3.47ZM652.5,346.12c-3.64-8.22-7.12-16.17-10.68-24.08-1.07-2.37-5.21-2.85-6.23-.64-3.77,8.18-7.33,16.46-11.47,25.82,2.6-1.56,5.36.79,6.14-2.52.91-3.83,3.25-4.78,6.82-4.28,1.71.24,3.49.14,5.23,0,1.87-.15,3.11.36,3.52,2.34.75,3.62,3.12,4.35,6.67,3.35ZM425.27,333.97c.15,4.54,2.15,8.71,6.93,11.24,5.2,2.75,10.33,2.35,15.28-.63.89-.54,2.59-1.18,1.08-2.78-1.05-1.11-1.73-2.49-3.85-.91-3.95,2.93-8.79,2.38-11.9-.8-2.96-3.02-3.32-8.81-.77-12.46,2.93-4.2,7.73-5,12.83-1.65,2.28,1.5,2.94-.31,3.88-1.26,1.37-1.38-.38-1.91-1.15-2.43-4.73-3.2-9.87-3.53-14.9-1.1-4.87,2.36-7.36,6.56-7.43,12.77ZM356.3,334.88c.19,3.83,2.28,7.84,6.87,10.32,5.04,2.71,10.08,2.41,14.95-.39.89-.52,3.06-1.01,1.48-2.95-1.12-1.38-2.23-2.7-4.12-.73-1.03,1.07-2.55,1.49-4.09,1.61-4.22.35-7.69-1.66-9.29-5.43-1.63-3.84-.57-8.87,2.39-11.3,3.22-2.65,7.41-3.03,11.04-.27,2.26,1.72,3.26.26,4.2-.95,1.45-1.85-.8-2.33-1.7-2.86-4.86-2.9-9.99-3.1-14.93-.37-4.63,2.55-6.87,6.72-6.8,13.33ZM192.65,333.32c.15-5.79,3.97-9.64,9.36-9.42,1.94.08,3.74.69,5.12,1.99,2.03,1.91,2.96-.15,3.86-1.12,1.53-1.63-.56-2.08-1.37-2.64-2.97-2.08-6.39-2.83-9.94-2.3-6.34.95-10.49,4.7-11.83,10.41-1.21,5.12.82,11.18,4.98,14,5.2,3.52,10.72,3.79,16.22.71.98-.55,3.42-.91,1.82-3.09-1.04-1.41-2.04-2.58-4.13-.79-2.83,2.42-6.26,2.25-9.48.57-3.32-1.73-4.66-4.68-4.62-8.32ZM319.36,320.17c-1.99,0-4.05-.31-5.96.09-1.74.37-5.1-1.98-4.97,2.06.11,3.66,3.28,1.78,4.88,1.74,2.94-.08,3.55.99,3.45,3.65-.18,5.35.03,10.71-.1,16.07-.06,2.15.66,2.73,2.75,2.75,2.08.02,2.46-.76,2.41-2.6-.11-4.23-.03-8.47-.02-12.71q0-6.52,6.55-7.03c.12,0,.25-.01.37,0,1.51.12,1.86-.68,1.9-2.04.04-1.44-.44-2.02-1.9-1.99-3.11.06-6.23.02-9.34.02ZM260.16,320.17c-3.12,0-6.24.03-9.35-.02-1.26-.02-1.8.45-1.72,1.74.07,1.11-.19,2.35,1.57,2.3.75-.02,1.52.12,2.24-.01,3.82-.7,4.93.87,4.65,4.63-.35,4.59-.11,9.22-.06,13.84.02,1.83-.79,3.96,2.67,3.92,3.31-.04,2.35-2.1,2.38-3.72.08-3.86.02-7.73.02-11.6,0-6.58,0-6.62,6.52-7.03,1.43-.09,2.3-.25,2.33-2.03.03-1.78-.77-2.07-2.25-2.03-2.99.06-5.99.02-8.98.02ZM558.17,333.32c0,3.61.08,7.22-.03,10.82-.05,1.8.57,2.38,2.35,2.34,4.73-.1,9.46-.09,14.19,0,1.59.03,2.13-.4,2.13-2.07,0-1.76-.78-2.05-2.26-2.01-2.74.07-5.49-.13-8.21.06-2.36.16-3.24-.49-3.14-3.02.2-5.22.1-10.45.04-15.67-.02-1.64.9-3.68-2.41-3.71-3.47-.03-2.62,2.1-2.65,3.93-.05,3.11-.01,6.22,0,9.33ZM546.15,333.32c0,3.49.11,6.98-.04,10.47-.09,2.13.64,2.75,2.75,2.76,2.04,0,2.47-.72,2.44-2.58-.09-7.1-.1-14.21,0-21.31.03-1.93-.48-2.55-2.48-2.57-2.15-.02-2.82.65-2.73,2.76.15,3.48.04,6.98.05,10.47ZM220.56,333.62c0-3.74-.09-7.48.04-11.21.06-1.84-.57-2.38-2.34-2.28-1.57.1-2.89-.09-2.85,2.24.12,7.23.13,14.45.02,21.68-.03,2.1.82,2.43,2.63,2.48,1.88.05,2.65-.39,2.56-2.44-.16-3.48-.05-6.98-.05-10.47ZM414.92,333.26h.01c0,3.74.08,7.48-.03,11.21-.07,2.15,1.24,1.98,2.66,2.02,1.53.04,2.54-.06,2.51-2.11-.11-7.35-.12-14.7,0-22.05.03-1.97-.76-2.24-2.41-2.2-1.65.03-2.89.02-2.78,2.3.16,3.61.04,7.22.04,10.84ZM585.01,333.63c0-3.74-.09-7.48.04-11.21.06-1.82-.54-2.41-2.33-2.29-1.54.1-2.9-.16-2.86,2.21.12,7.22.1,14.45,0,21.68-.03,2,.7,2.52,2.6,2.51,1.83-.01,2.69-.35,2.59-2.44-.17-3.48-.05-6.97-.04-10.46ZM621.75,333.33c0-3.61-.07-7.23.03-10.84.05-1.71-.36-2.55-2.25-2.35-1.46.15-2.97-.3-2.93,2.15.12,7.35.11,14.7-.01,22.05-.04,2.43,1.44,2.01,2.91,2.15,1.84.17,2.34-.56,2.28-2.32-.12-3.61-.04-7.23-.04-10.84ZM286.54,317.71q-4.71-5.7-9.48-4.39c3.03,1.82,4.83,5.71,9.48,4.39Z"/>
      <path class="cls-6" d="M292.41,62.9c-5.18,4.84-10.47,9.55-15.5,14.54-6.65,6.59-13.12,13.36-19.6,20.13-1.41,1.47-2.89,2.04-4.93,2.04-26.99-.05-53.98.14-80.97-.1-12.98-.11-25.92.26-38.87,1.03-10.71.63-17.18,7.24-18.26,18.55-.91,9.48,5.07,18.05,14.5,20.41,11.28,2.83,22.86,3.86,34.35,5.32,27.09,3.45,54.17,6.95,80.55,14.31,8.43,2.35,16.39,5.9,23.84,10.56,14.08,8.8,21.24,21.45,22.15,38.06.97,17.75-2.77,33.53-17.11,45.31-8.85,7.27-19.37,11.1-30.36,13.84-13.52,3.37-27.28,4.48-41.15,4.76-37.6.74-75.19.14-112.79.4-2.53.02-3.99-.73-5.35-2.95-6.84-11.16-13.89-22.19-20.85-33.27-.51-.81-1.62-1.57-1.19-2.58.48-1.12,1.77-.58,2.69-.58,41.1.08,82.2.06,123.3.38,11.62.09,23.2.11,34.75-1.34,10.07-1.26,15.73-6.9,17.45-17.47,1.38-8.43-3.34-16.98-11.58-20.67-7.58-3.39-15.7-4.94-23.82-6.12-23.44-3.4-46.92-6.51-70.38-9.78-15.48-2.15-30.75-5.18-44.89-12.2-21.67-10.76-30.01-27.08-27.87-52.89,2.01-24.2,18.39-38.56,41.23-45.02,15.35-4.34,31.02-5.94,46.92-6.31,21.36-.5,42.71-.17,64.07-.25,26.21-.1,52.42-.02,78.63-.02.35.63.69,1.27,1.04,1.9Z"/>
      <path class="cls-5" d="M575.87,97.34c10.91-11.66,21.83-23.31,32.7-35,1.06-1.14,2.23-1.36,3.66-1.36,22.74.02,45.49-.3,68.23.1,21.57.37,41.23,6.55,57.74,21.13,12.91,11.4,20.76,25.7,24.35,42.36,4.52,20.97,1.4,41.33-6.87,60.73-19.71,46.22-54.59,75.82-102.13,90.88-11.21,3.55-22.87,5.07-34.68,5.06-30.74-.03-61.48,0-92.65,0,1.87-3.27,4.51-5.48,6.76-7.95,7.89-8.68,15.98-17.18,23.89-25.84,2.41-2.64,4.95-4.02,8.73-3.8,6.1.36,12.24.04,18.36.13,1.65.02,3.17-.3,4.68-.82,1.54.2,2.95,1.07,4.57.81,6.25-.05,12.49-.09,18.74-.14,8.52.02,17.05.68,25.53-.69,2.54-.07,5.06-.31,7.47-1.2,3.88-.64,7.74-1.37,11.28-3.23.6-.15,1.23-.2,1.78-.45,35.84-16.03,57.64-43.06,62.3-82.3,3.62-30.47-15.8-54.49-45.38-56.48-20.42-1.38-40.96-.52-61.44-.22l-24.86-.3c-2.76-.65-5.5-1.14-8.14.43-1.49-.06-2.98-.12-4.48-.18-.04-.54-.09-1.08-.13-1.62Z"/>
      <path class="cls-12" d="M342.64,99.78h-66.1c5.38-5.69,10.27-10.9,15.21-16.06,6.47-6.77,13-13.48,19.46-20.26,1.28-1.34,2.57-1.96,4.52-1.96,87.34.06,174.69.05,262.03.05.95,0,1.89,0,3.49,0-8.49,8.94-16.46,17.31-24.42,25.7-3.18,3.35-6.47,6.61-9.44,10.13-1.64,1.94-3.41,2.45-5.82,2.45-51.86-.05-103.71,0-155.57-.12-3.29,0-4.68.75-5.56,4.08-15.26,57.7-30.7,115.36-45.98,173.06-.87,3.3-1.96,4.6-5.63,4.48-10.36-.32-20.74-.2-31.11-.06-2.79.04-3.24-.62-2.51-3.32,11.5-42.82,22.91-85.66,34.33-128.5,4.27-16.02,8.53-32.04,12.79-48.06.12-.46.18-.93.31-1.62Z"/>
      <path class="cls-5" d="M533.33,242.97c-12.28,12.89-23.82,24.98-35.31,37.11-.87.92-1.76,1.16-2.95,1.16-40.99-.05-81.97-.07-122.96-.1-.12,0-.24-.08-.7-.24,2.27-8.68,4.51-17.41,6.84-26.11,8.69-32.58,17.43-65.16,26.09-97.75.65-2.44,1.47-3.61,4.4-3.6,41.49.12,82.97.09,124.46.1,1.08,0,2.17.1,3.99.19-5.8,6.12-11.16,11.77-16.52,17.44-6.09,6.44-12.25,12.81-18.19,19.38-1.38,1.52-2.8,1.35-4.36,1.35-20.24.02-40.49.09-60.73-.07-2.97-.02-4.02.92-4.72,3.65-3.79,14.73-7.71,29.42-11.73,44.09-.78,2.83-.26,3.49,2.74,3.48,34.74-.11,69.48-.07,104.22-.07,1.45,0,2.91,0,5.43,0Z"/>
      <path class="cls-9" d="M834.34,280.7q-6.76,0-9.11-6.21c-1.81-4.77-3.85-9.47-5.38-14.33-.87-2.78-2.71-2.37-4.67-2.37-2.26,0-2.04,1.74-2.28,3.16-1.01,5.77-2.09,11.53-2.98,17.32-.29,1.87-.99,2.57-2.89,2.46-2.49-.14-5-.14-7.49,0-2.22.13-2.36-.78-2.02-2.67,3.23-17.9,6.4-35.81,9.53-53.73.37-2.11,1.01-3.23,3.54-3.08,8.34.49,16.75-.77,25.05.71,10.21,1.81,15.1,10.13,12,20-2.08,6.61-6.34,11.26-12.8,13.69-2.23.84-2.79,1.62-1.76,3.93,2.68,6.02,5.01,12.2,7.64,18.25.98,2.24.82,3.18-1.87,2.9-1.48-.15-3-.03-4.5-.03ZM821.85,248.36c1.62,0,3.25.11,4.86-.02,4.32-.36,7.13-2.82,8.54-6.78,2.09-5.85-.59-9.88-6.76-10.34-1.74-.13-3.53.19-5.24-.07-3.98-.61-6.01.72-6.02,4.98,0,1.84-.62,3.67-.98,5.51q-1.34,6.82,5.59,6.74Z"/>
      <path class="cls-9" d="M786.66,237.65c-1.25,0-2.51-.11-3.74.02-1.83.19-2.53-.43-2.9-2.34-.64-3.35-3.74-5.14-7.7-4.96-4.38.21-7.48,2.18-8.12,5.31-.52,2.55.34,4.61,2.43,6.21,2.4,1.84,5.16,3,7.83,4.33,2.57,1.27,5.19,2.43,7.66,3.88,11.25,6.59,11.48,21.16.15,27.64-8.94,5.1-18.44,4.93-27.56.19-4.76-2.47-6.98-6.85-6.96-12.33,0-1.82.64-2.42,2.4-2.32,1.99.11,4,.11,5.99,0,2.5-.14,4.19-.13,4.7,3.33.5,3.43,3.83,4.73,7.16,4.8,3.55.08,7.11-.27,9.02-3.96,1.6-3.09.67-5.99-2.43-8.02-4.29-2.81-9.19-4.39-13.74-6.68-5.93-2.99-9.74-7.29-9.62-14.26.13-7.36,3.74-12.58,10.32-15.56,7.13-3.24,14.57-3.35,21.87-.65,5.22,1.93,8.63,5.66,9.7,11.4.58,3.09-.14,4.48-3.45,4.01-.98-.14-1.99-.02-2.99-.03Z"/>
      <path class="cls-9" d="M20.2,232.56c9.55,0,19.12.02,28.69-.02,1.25,0,1.69.79,2.23,1.64,7.45,11.81,14.89,23.62,22.39,35.39,1.22,1.91.96,2.52-1.38,2.48-6.87-.09-13.75-.05-20.62-.01-1.21,0-2.12-.27-2.89-1.28-9.46-12.41-18.94-24.79-28.41-37.19-.11-.15-.01-.45-.01-1.01Z"/>
      <path class="cls-9" d="M866.94,280.69c-4.37,0-8.74-.07-13.11.03-1.97.04-2.5-.34-2.1-2.53,3.26-17.89,6.37-35.8,9.47-53.71.39-2.27,1.16-3.27,3.79-3.25,9.34.09,9.23-.06,7.51,9.22-2.36,12.73-4.46,25.51-6.82,38.24-.41,2.21.28,2.59,2.21,2.56,4.74-.08,9.49,0,14.23-.05,1.88-.02,2.47.4,2.17,2.55-.98,6.95-.85,6.97-7.99,6.95-3.12,0-6.24,0-9.36,0Z"/>
      <path class="cls-2" d="M600,234.8c.21-2.62-2.16-4.06-3.58-4.78-4.96-2.5-8.99-6.29-12.67-10.03-4.53-4.6-8.13-10.28-10.77-16.37-3.52-8.12-4.75-16.65-4.45-25.43.06-1.85-1.06-3.33-1.2-4.94-.49-5.53,1.75-10.9,1.41-16.47-.01-.24.74-.52,1.14-.78-.08,2.46-.21,4.92-.24,7.38-.08,6.94-.22,13.89,2.56,20.47,0,0-.02-.09-.02-.09-.05,1.48.53,2.72,1.52,3.78l-.02-.03c-.06,2.54,1.47,4.3,3.02,6.03,0,0-.02-.02-.02-.02l.83,2.15c.04,1.72-.24,3.44.65,5.1,5.51,10.32,12.26,19.43,23.06,24.86,1.86.93,3.6,2.25,4.02,4.58-.08.24-.1.48-.06.73l.03-.03c-.52,0-.78.26-.78.77l.02-.02c-.51,0-.79.25-.77.78l.03-.03c-.53-.01-.77.26-.78.78l.03-.03c-.52,0-.82.22-.78.77l.03-.03c-.48.02-1.12-.12-.81.75l-.06-.1c-.44.08-.88.15-1.32.23Z"/>
      <path class="cls-1" d="M403.5,337.86c0-5.69.06-10.4-.03-15.11-.03-1.76.2-2.67,2.37-2.66,2.07.01,2.49.72,2.46,2.6-.09,6.87,0,13.74-.09,20.6-.01,1.05.94,2.73-.97,3.09-1.57.3-3.04.23-4.28-1.4-3.71-4.86-7.63-9.54-11.48-14.29-.28-.35-.59-.67-1.45-1.65,0,5.47-.05,10.15.03,14.83.03,1.75-.21,2.71-2.37,2.67-2.08-.03-2.82-.58-2.78-2.73.12-6.49-.03-12.99.11-19.48.03-1.37-1.21-3.49,1.18-4.09,1.91-.48,3.42.14,4.77,1.94,3.81,5.08,7.92,9.94,12.53,15.67Z"/>
      <path class="cls-1" d="M515.74,333.13c0-3.61.06-7.23-.03-10.84-.04-1.58.42-2.21,2.09-2.16,3.86.13,7.74-.13,11.58.16,6.82.52,12.01,6.36,11.9,13.02-.11,7.01-4.99,12.5-11.89,13.02-3.84.29-7.72.02-11.58.15-1.67.05-2.13-.57-2.1-2.15.09-3.73.03-7.47.02-11.21ZM520.49,333.36c0,.62,0,1.25,0,1.87,0,7.8,1.12,8.67,8.93,6.85,5.7-1.32,8.61-8.02,5.78-13.31-1.9-3.54-8.44-6.16-13.24-4.47-3.1,1.09-.85,4.52-1.43,6.82-.18.7-.03,1.49-.03,2.24Z"/>
      <path class="cls-7" d="M156.1,333.28c.02-7.68,6.18-13.76,13.84-13.68,8.11.09,14.16,5.99,14.15,13.8-.02,7.77-6.26,13.72-14.28,13.61-7.9-.11-13.73-5.95-13.71-13.73ZM169.81,323.9c-5.21.09-8.82,4.28-8.68,10.07.12,5.14,3.99,8.85,9.17,8.77,4.94-.07,8.79-4.15,8.72-9.25-.08-5.74-3.86-9.68-9.21-9.59Z"/>
      <path class="cls-1" d="M490.68,333.39c0-3.62.08-7.25-.03-10.87-.05-1.78.52-2.42,2.33-2.39,5,.09,9.99.06,14.99.02,1.37-.01,1.99.34,2,1.88.01,1.62-.5,2.23-2.12,2.19-3.25-.08-6.5.11-9.74-.07-3.4-.19-2.16,2.24-2.29,3.81-.14,1.68-.49,3.56,2.42,3.28,2.6-.25,5.24-.04,7.87-.08,1.37-.02,2.33.07,2.39,1.94.07,2.06-.98,2.18-2.51,2.13-2-.06-4-.03-6-.02-3.78,0-5.66,2.93-4.17,6.37.5,1.16,1.44.8,2.22.81,3.37.05,6.75.09,10.12,0,1.69-.04,2.47.41,2.47,2.3,0,2.03-1.26,1.75-2.48,1.75-5,0-10-.08-14.99.05-2.05.05-2.55-.73-2.49-2.62.12-3.49.03-6.99.03-10.49Z"/>
      <path class="cls-1" d="M333.19,333.38c0-3.62.08-7.25-.03-10.87-.05-1.78.53-2.41,2.34-2.37,4.87.1,9.75.04,14.62.03,1.31,0,2.36-.07,2.39,1.87.03,2.03-.96,2.22-2.53,2.19-3-.05-6.02.19-8.99-.09-3.48-.32-2.54,2-2.71,3.84-.19,2.15.1,3.58,2.87,3.28,2.35-.25,4.74-.06,7.12-.06,1.36,0,2.69-.31,2.75,1.92.07,2.47-1.44,2.11-2.91,2.1-1.87,0-3.75-.01-5.62,0-3.79,0-5.63,2.87-4.17,6.37.49,1.18,1.43.81,2.21.82,3.37.05,6.75.08,10.12,0,1.67-.04,2.51.37,2.49,2.27-.03,1.98-1.24,1.78-2.5,1.78-5,0-10-.08-14.99.05-2.04.05-2.55-.73-2.48-2.63.13-3.49.04-6.99.04-10.49h-.01Z"/>
      <path class="cls-1" d="M237.13,346.6c-3.09-.15-7.12.84-9.01-.74-2.01-1.68-.55-5.85-.62-8.92-.11-4.73.03-9.47-.07-14.21-.04-1.88.44-2.66,2.49-2.6,4.86.14,9.72.08,14.58.02,1.46-.02,2.27.22,2.26,2.01-.02,1.75-.78,2.08-2.27,2.06-3.24-.06-6.49.11-9.72-.05-3.11-.16-2.2,2.02-2.17,3.53.03,1.46-1.03,3.72,2.12,3.53,2.73-.17,5.48,0,8.22-.05,1.44-.03,2.31.19,2.31,2,0,1.7-.64,2.14-2.19,2.06-1.99-.09-3.99-.02-5.98-.02-4.54,0-5.55,1.46-4.56,6.01.35,1.6,1.37,1.17,2.23,1.18,3.36.06,6.73.07,10.1.01,1.59-.03,2.56.21,2.55,2.2,0,1.94-1.12,1.86-2.41,1.85-2.62-.02-5.24,0-7.85,0v.14Z"/>
      <path class="cls-1" d="M597.82,342.43c4.08,0,8.07.01,12.05,0,1.43,0,2.67-.11,2.71,2.03.04,2.19-1.23,2.01-2.65,2.01-5.49-.02-10.99.04-16.48-.05-1.08-.02-2.68.89-3.19-.84-.4-1.34.09-2.61,1.04-3.78,3.63-4.44,7.19-8.94,10.72-13.45.89-1.13,2.07-2.12,2.48-4.14-3.99,0-7.8,0-11.61,0-1.41,0-2.65.15-2.69-2-.04-2.17,1.17-2.04,2.61-2.03,5.24.02,10.49-.04,15.73.05,1.09.02,2.69-.84,3.24.8.44,1.32-.01,2.59-.98,3.78-4.02,4.92-7.95,9.92-11.89,14.92-.51.65-1.35,1.17-1.11,2.72Z"/>
      <path class="cls-7" d="M143,347.07c-2.97-.19-5.9-.65-8.65-2-1.54-.76-1.81-1.64-1.07-3.27.79-1.73,1.57-1.34,2.86-.68,2.6,1.33,5.4,1.99,8.33,1.57,1.78-.25,3.63-.88,3.84-2.94.19-1.91-1.37-2.76-3.03-3.25-2.38-.71-4.77-1.39-7.15-2.14-3.03-.95-4.94-2.98-5.14-6.19-.21-3.34,1.54-5.76,4.44-7.17,4.46-2.18,8.93-1.46,13.37.32,1.89.75.92,1.91.64,3.01-.35,1.4-1.05,1.74-2.41,1.02-2.49-1.32-5.19-1.84-7.96-1.2-1.49.35-2.85,1.15-3.02,2.92-.17,1.83.99,2.67,2.59,3.11,1.91.53,3.82,1.09,5.72,1.67,5.19,1.57,7.08,3.63,6.91,7.5-.17,3.9-3.12,6.68-8.01,7.51-.73.12-1.49.14-2.27.22Z"/>
      <path class="cls-1" d="M449.74,346.48c3.77-8.54,7.39-16.68,10.92-24.85.74-1.72,2.07-1.4,3.41-1.47,1.31-.06,2.3.09,2.94,1.57,3.49,8.07,7.1,16.09,10.74,24.29-3.28,1.05-5.66.62-6.51-2.97-.54-2.28-1.96-2.83-4.09-2.62-1.48.15-3,.14-4.48,0-3.49-.33-6.25.06-7.2,4.29-.71,3.14-3.43,1.28-5.74,1.75ZM463.83,325.37c-.88,2-1.53,3.46-2.16,4.92-2.9,6.71-2.9,6.65,4.37,6.26,1.88-.1,2.48-.48,1.59-2.37-1.27-2.67-2.35-5.42-3.79-8.8Z"/>
      <path class="cls-1" d="M297.8,346.08c-3.9,1.29-5.89-.12-6.72-3.47-.43-1.74-1.48-2.34-3.26-2.19-1.85.16-3.76.22-5.6,0-3.38-.41-5.66.35-6.56,4.08-.78,3.26-3.45,1.66-5.82,1.84,3.73-8.5,7.33-16.65,10.88-24.82.74-1.71,2.17-1.25,3.48-1.37,1.38-.12,2.26.25,2.87,1.67,3.5,8.06,7.1,16.08,10.73,24.26ZM283.84,325.39c-.88,2.01-1.57,3.45-2.15,4.94-.76,1.93-2.95,4.46-1.91,5.65,1.35,1.55,4.38.36,6.68.54,1.63.13,1.95-.62,1.34-2.02-1.24-2.82-2.46-5.66-3.95-9.1Z"/>
      <path class="cls-1" d="M652.5,346.12c-3.55,1.01-5.92.28-6.67-3.35-.41-1.99-1.65-2.49-3.52-2.34-1.73.14-3.52.23-5.23,0-3.57-.5-5.91.45-6.82,4.28-.78,3.3-3.55.96-6.14,2.52,4.14-9.36,7.7-17.64,11.47-25.82,1.02-2.21,5.16-1.73,6.23.64,3.56,7.92,7.04,15.86,10.68,24.08ZM634.09,336.5c2.54,0,4.87-.02,7.19,0,1.33.01,1.86-.49,1.29-1.8-1.27-2.93-2.56-5.85-4.17-9.53-1.43,4.29-3.5,7.39-4.32,11.32Z"/>
      <path class="cls-7" d="M425.27,333.97c.08-6.22,2.56-10.41,7.43-12.77,5.03-2.44,10.17-2.11,14.9,1.1.77.52,2.52,1.05,1.15,2.43-.94.95-1.6,2.76-3.88,1.26-5.09-3.35-9.9-2.55-12.83,1.65-2.55,3.65-2.19,9.43.77,12.46,3.11,3.18,7.95,3.74,11.9.8,2.12-1.57,2.8-.2,3.85.91,1.51,1.6-.19,2.25-1.08,2.78-4.95,2.98-10.08,3.37-15.28.63-4.78-2.53-6.78-6.7-6.93-11.24Z"/>
      <path class="cls-7" d="M356.3,334.88c-.07-6.61,2.17-10.78,6.8-13.33,4.94-2.72,10.07-2.53,14.93.37.9.53,3.14,1.02,1.7,2.86-.95,1.21-1.95,2.67-4.2.95-3.62-2.76-7.81-2.38-11.04.27-2.96,2.43-4.02,7.46-2.39,11.3,1.6,3.77,5.07,5.79,9.29,5.43,1.54-.13,3.06-.54,4.09-1.61,1.89-1.97,3-.65,4.12.73,1.58,1.94-.58,2.44-1.48,2.95-4.87,2.81-9.91,3.11-14.95.39-4.6-2.47-6.68-6.48-6.87-10.32Z"/>
      <path class="cls-7" d="M192.65,333.32c-.04,3.64,1.3,6.59,4.62,8.32,3.22,1.68,6.65,1.85,9.48-.57,2.09-1.79,3.09-.62,4.13.79,1.6,2.18-.84,2.55-1.82,3.09-5.5,3.08-11.02,2.8-16.22-.71-4.16-2.82-6.19-8.88-4.98-14,1.35-5.7,5.5-9.46,11.83-10.41,3.55-.53,6.97.22,9.94,2.3.81.56,2.89,1.01,1.37,2.64-.9.97-1.83,3.02-3.86,1.12-1.39-1.3-3.18-1.91-5.12-1.99-5.38-.22-9.21,3.62-9.36,9.42Z"/>
      <path class="cls-1" d="M319.36,320.17c3.11,0,6.23.04,9.34-.02,1.47-.03,1.94.55,1.9,1.99-.04,1.37-.39,2.17-1.9,2.04-.12,0-.25,0-.37,0q-6.54.52-6.55,7.03c0,4.24-.08,8.47.02,12.71.05,1.84-.33,2.62-2.41,2.6-2.1-.02-2.81-.6-2.75-2.75.14-5.35-.08-10.72.1-16.07.09-2.67-.51-3.73-3.45-3.65-1.59.04-4.77,1.92-4.88-1.74-.12-4.04,3.24-1.69,4.97-2.06,1.91-.4,3.97-.09,5.96-.09Z"/>
      <path class="cls-1" d="M260.16,320.17c2.99,0,5.99.04,8.98-.02,1.48-.03,2.28.25,2.25,2.03-.03,1.79-.89,1.94-2.33,2.03-6.52.41-6.52.45-6.52,7.03,0,3.87.06,7.73-.02,11.6-.03,1.62.93,3.68-2.38,3.72-3.46.04-2.65-2.09-2.67-3.92-.05-4.61-.29-9.25.06-13.84.29-3.76-.82-5.33-4.65-4.63-.72.13-1.49-.01-2.24.01-1.76.06-1.5-1.18-1.57-2.3-.08-1.28.46-1.76,1.72-1.74,3.12.05,6.24.02,9.35.01Z"/>
      <path class="cls-1" d="M558.16,333.32c0-3.11-.04-6.22,0-9.33.03-1.82-.82-3.95,2.65-3.93,3.31.02,2.39,2.07,2.41,3.71.06,5.23.16,10.46-.04,15.67-.1,2.53.78,3.19,3.14,3.02,2.72-.19,5.47,0,8.21-.06,1.48-.04,2.26.25,2.26,2.01,0,1.66-.54,2.1-2.13,2.07-4.73-.09-9.46-.1-14.19,0-1.78.04-2.41-.55-2.35-2.34.11-3.6.03-7.21.03-10.82Z"/>
      <path class="cls-7" d="M546.15,333.32c0-3.49.1-6.98-.05-10.47-.09-2.11.58-2.78,2.73-2.76,2,.02,2.51.64,2.48,2.57-.11,7.1-.1,14.21,0,21.31.02,1.86-.4,2.59-2.44,2.58-2.11,0-2.84-.63-2.75-2.76.15-3.48.04-6.98.04-10.47Z"/>
      <path class="cls-7" d="M220.57,333.62c0,3.49-.12,6.98.05,10.47.1,2.05-.67,2.49-2.56,2.44-1.81-.05-2.67-.38-2.63-2.48.12-7.23.1-14.45-.02-21.68-.04-2.33,1.28-2.14,2.85-2.24,1.77-.11,2.41.44,2.34,2.28-.13,3.73-.04,7.48-.04,11.21Z"/>
      <path class="cls-7" d="M414.92,333.26c0-3.61.12-7.23-.04-10.84-.1-2.28,1.13-2.26,2.78-2.3,1.65-.03,2.45.23,2.41,2.2-.12,7.35-.12,14.7,0,22.05.03,2.05-.98,2.15-2.51,2.11-1.43-.04-2.73.13-2.66-2.02.12-3.73.03-7.47.03-11.21h-.01Z"/>
      <path class="cls-7" d="M585.01,333.63c0,3.49-.13,6.98.04,10.46.1,2.09-.76,2.43-2.59,2.44-1.9.01-2.63-.51-2.6-2.51.1-7.22.12-14.45,0-21.68-.04-2.37,1.32-2.11,2.86-2.21,1.78-.12,2.39.47,2.33,2.29-.13,3.73-.04,7.47-.04,11.21Z"/>
      <path class="cls-7" d="M621.75,333.33c0,3.61-.08,7.23.04,10.84.06,1.76-.44,2.49-2.28,2.32-1.48-.14-2.95.28-2.91-2.15.12-7.35.13-14.7.01-22.05-.04-2.45,1.47-2,2.93-2.15,1.89-.2,2.3.64,2.25,2.35-.11,3.61-.03,7.23-.03,10.84Z"/>
      <path class="cls-14" d="M572.19,183.85c-2.78-6.58-2.64-13.53-2.56-20.47.03-2.46.15-4.92.24-7.38,1.27-7.14,2.6-14.28,3.78-21.44,1.02-6.22,2.06-12.42,2.6-18.73.44-5.17-.15-10.13-1.25-15.08-.34-1.51-.67-2.58.87-3.42.04.54.09,1.08.13,1.62,2.6,10.53,1.4,20.95-.6,31.43-2.63,13.76-5.04,27.55-4.69,41.67.1,4.01,2.04,7.73,1.48,11.79Z"/>
      <path class="cls-7" d="M286.54,317.71c-4.65,1.32-6.45-2.57-9.48-4.39q4.77-1.31,9.48,4.39Z"/>
      <path class="cls-14" d="M593.21,243.74c-1.62.27-3.03-.61-4.57-.81,1.29-.95,2.59-1.9,3.88-2.85,1.06-.03,1.78-.63,2.38-1.42,0,0,0,.03,0,.03.43-.1.87-.2,1.3-.3.39,1.55-1.79,1.52-1.76,2.95,1.92.32,3.67-1.22,5.61-.58-1.91,1.84-4.89,1.24-6.84,2.98Z"/>
      <path class="cls-14" d="M600,234.8c.44-.08.88-.15,1.32-.23-.76,2.08-2.13,3.28-4.46,3.13.09-.22.14-.44.17-.67,0,0-.01,0-.01,0,.74-.52,1.48-1.03,2.22-1.55.25-.23.51-.46.76-.69Z"/>
      <path class="cls-2" d="M594.9,238.66c-.6.79-1.32,1.39-2.38,1.42.06-1.7,1.17-1.65,2.38-1.42Z"/>
      <path class="cls-2" d="M597.04,237.03c-.03.23-.08.45-.17.67l.09-.02c-.45.07-.78.26-.78.78l.02-.07c-.43.1-.87.2-1.3.3-.22-1.76.96-1.7,2.14-1.66Z"/>
      <path class="cls-2" d="M599.24,235.49c-.74.52-1.48,1.03-2.22,1.55-.01-1.59,1.11-1.57,2.22-1.55Z"/>
      <path class="cls-8" d="M613.47,99.02c20.48-.3,41.03-1.15,61.44.22,29.58,1.99,49,26.01,45.38,56.48-4.66,39.24-26.46,66.28-62.3,82.3-.55.25-1.19.31-1.78.45-.32-1.89-1.08-1.08-1.94-.37-.56.47-1.27.31-1.56-.34-.16-.37-.07-1.19.19-1.37,2.87-1.88,2.71-5.53,4.7-7.91,4.09-4.89,5.91-10.97,7.99-16.73,5.28-14.64,6.2-29.69,3.45-45.15-3.25-18.29-11.39-33.87-24.65-46.61-7.48-7.19-16.13-12.99-25.86-17-1.98-.82-4.28-1.52-5.07-3.98Z"/>
      <path class="cls-10" d="M596.87,237.69c2.33.16,3.7-1.05,4.46-3.13,0,0,.06.1.06.1.51,0,.8-.22.81-.75,0,0-.03.03-.03.03.53.01.82-.21.78-.77,0,0-.03.03-.03.03.55.03.81-.23.78-.78,0,0-.03.03-.03.03.55.03.82-.21.77-.78,0,0-.02.02-.02.02.57.05.83-.21.78-.77,0,0-.03.03-.03.03.55.04.81-.22.79-.77l-.03.03c.56.05.8-.23.77-.78l-.03.03c.55.03.81-.22.77-.78l-.02.02c1.86-.05,2.59-1.37,3.18-2.85,1.28-1.35,3.2-2.31,2.82-4.66.51.15.77-.14.96-.54,1.63-.83,2.3-2.15,2.03-3.96,2.16-.42,2.37-1.99,2.24-3.77.52.17.76-.16.96-.55.77-.69.81-1.53.53-2.44,1.63-.35,1.87-1.78,2.41-3.02,5.69-13.09,7.62-26.78,5.74-40.87-.55-4.12-.52-8.71-3.68-12.17,0-2.91-.39-5.67-2.94-7.59l.02.03c.13-.71.1-1.33-.77-1.54l.03.04c.18-1.47-.12-2.65-1.79-3.03-.18-.49-.36-.97-.55-1.46-2.22-3.27-4.44-6.53-6.66-9.8-1.11-2.39-2.6-4.39-5.25-5.24l.02.02c.07-1.08-.42-1.6-1.52-1.52l.02.02c.02-.54-.23-.8-.77-.77l.02.02c.02-.53-.24-.79-.77-.77l.02.02c-.1-.92-.7-1.34-1.53-1.52l.03.03c-.39-1.06-1.05-1.71-2.27-1.53l.02.02c.02-.53-.29-.74-.78-.78l.03.03c-.03-.49-.3-.74-.78-.77l.03.02c-.37-1.09-1.09-1.65-2.27-1.52l.03.02c-.15-.85-.75-1.45-1.52-1.26-.91.22-.71,1.2-.69,1.91.29,7.85-2.17,15.2-4.08,22.65-1.66,6.47-4.36,12.73-4.93,19.41-.47,5.39-.2,10.88.17,16.3.15,2.12.41,4.48,1.79,6.39.38,1.07.02,2.53,1.61,3.19.18-1.55-.51-2.53-1.22-3.5-.17-1.49-.34-2.98-.51-4.47,2.36,1.2,2.67,3.98,4.4,5.68,1.89,1.86,3.36,4.92,6.24,4.66,3.46-.31,6.6-.86,9.07,2.24.1.13.47.05.72.07.15,1.16-1.21,2.29.1,3.74,2.39-8.68,3.39-17.32,3.39-26.11.76,7.91,1.56,15.73.76,23.72-.57,5.68-2.4,11.13-2.51,16.85-2.07,1.08-1.97,3.21-2.46,5.06-1.41,1.14-2.76-.22-4.14-.1-2.18-1.93-4.92-2.69-7.57-3.64-.5-.25-1-.5-1.49-.76-.98-1.3-2.03-2.48-3.92-2.05-.95-2.45-3.15-3.44-5.27-4.53l.05.04c-.21-.85-.76-1.02-1.53-.79l.02.02c-1.37-3.02-3.15-5.7-6.03-7.51,0,0,.02.02.02.02-.21-2.41-1.25-4.41-3.02-6.03,0,0,.02.03.02.03.17-1.53.23-3.02-1.52-3.78,0,0,.02.09.02.09.56-4.06-1.38-7.78-1.48-11.79-.35-14.12,2.06-27.92,4.69-41.67,2-10.47,3.2-20.9.6-31.43,1.49.06,2.98.12,4.48.18,5.14.99,10.27,1.96,15.35,3.24,2.96.74,5.47,2.89,8.7,2.61,0,0-.04-.03-.04-.03.16.96.84.89,1.54.78l-.03-.02c.46,1.59,1.66,1.73,3.03,1.52l-.03-.02c.15.96.86.83,1.53.77l-.03-.02c.16.94.84.87,1.53.77l-.02-.02c.47,1.88,2.01,2.55,3.57,3.2l4.03,2.05c.09.16.18.32.27.48.11-.15.22-.3.32-.45.26.43.52.85.77,1.28.09.48.08,1.05.83.95l-.05-.04c.57,1.34,1.29,2.49,3.02,2.3l-.03-.03c1.12,3.23,3.4,5.53,6.04,7.53l-.04-.04c.03.48.23.81.77.79l-.03-.03c0,.51.23.8.78.79,0,0-.02-.03-.02-.03.3,3.06,2.08,5.14,4.52,6.78l-.02-.03c-.09.68-.19,1.38.77,1.53l-.02-.03c-.16.9-.23,1.78.78,2.28l-.03-.04c.15.59.21,1.22.46,1.77,6.86,14.76,8.66,30.07,5.62,46.08-1.31,6.9-4.11,13.24-6.35,19.8-.19.26-.38.51-.56.77-1.2,1.51-2.36,3.04-2.17,5.14l.02-.02c-1.95.22-2.11,1.72-2.3,3.2-1.7,1.74-2.11,4.45-4.32,5.81-1.96.93-3.58,2.17-3.9,4.51l.03-.03c-.55-.03-.81.23-.78.78l.03-.02c-2.16.33-3.51,1.68-4.44,3.55-.82.57-1.65,1.14-2.47,1.71-.75.24-1.57.42-1.35,1.52,0,0,.01-.02.01-.02-1.83-.19-3.05.63-3.77,2.28l.03-.03c-.53-.02-.83.2-.78.77l.04-.02c-1.36-.19-2.53,0-3.04,1.52l.03-.02c-1.36-.2-2.51.03-3.03,1.52l.03-.02c-.68-.08-1.38-.2-1.53.77l.03-.03c-1.52-.13-3.04-.26-3.79,1.52l.06-.03c-1.94-.65-3.69.9-5.61.58-.03-1.43,2.15-1.4,1.76-2.95,0,0-.02.07-.02.07.54.02.84-.2.78-.78l-.09.02ZM600.11,201.6c-.25-.24-.5-.48-.76-.72-.34-.85-.53-1.87-1.88-1.64-.31,1.31.76,1.54,1.52,2l.76.75c.25.24.5.49.76.73.24.26.49.52.73.77.67,1.5,1.35,1.56,2.03,0,1.95-2.61,3.16-5.49,2.88-8.93-1.1,2.85-2.21,5.69-3.31,8.54-.41,0-.82,0-1.24,0l-.78-.7c-.24-.27-.48-.54-.72-.8ZM593.03,193.7c.25.25.5.51.75.76.13.39.11,1.17.69.82.47-.28-.02-.82-.42-1.11-.23-.26-.46-.53-.69-.79-.21-.29-.43-.58-.64-.87-.27-.48-.54-.96-.81-1.44-.17-.16-.46-.49-.49-.47-.46.33-.16.59.12.84.27.49.54.97.81,1.46.23.27.47.53.7.79ZM588.86,185.97c-.08,1.88.38,2.92,1.88,3.83,0-1.59-.52-2.57-1.88-3.83Z"/>
      <path class="cls-2" d="M613.47,99.02c.79,2.47,3.09,3.17,5.07,3.98,9.72,4.01,18.38,9.81,25.86,17,13.26,12.74,21.4,28.32,24.65,46.61,2.75,15.46,1.83,30.51-3.45,45.15-2.08,5.76-3.9,11.84-7.99,16.73-1.99,2.38-1.82,6.03-4.7,7.91-.27.17-.36.99-.19,1.37.29.65.99.81,1.56.34.86-.71,1.62-1.52,1.94.37-3.53,1.86-7.39,2.59-11.28,3.23-.3-2.56.4-4.59,2.76-6.01.9-.54,1.56-1.6,2.15-2.53,7.32-11.57,13.1-23.61,14.95-37.53,1.44-10.84,1.59-21.45-.72-32.08-1.66-7.63-4.55-14.81-8.14-21.76-3.64-7.05-8.63-12.99-14.45-18.19-4.1-3.66-8.7-6.78-13.2-9.99-4.23-3.01-8.85-4.85-13.34-7.03-2.63-1.28-5.78-2.25-8.98-1.56-.49-.02-.99-.04-1.48-.06,0,0,.04.03.04.03-1.88-1.65-4.2-2.29-6.5-3.09-3.13-1.09-6.69-.91-9.4-3.19l24.86.3Z"/>
      <path class="cls-3" d="M617.1,231.01c.82-.57,1.65-1.14,2.47-1.71,1.55-.16,2.4-1.49,3.63-2.17.54,1.92.89,3.86.8,5.89-.1,2.25-.08,4.81,2.15,5.95,2.1,1.08,4.17-.43,5.88-1.61,8.95-6.18,15.52-14.21,19.78-24.34,4.23-10.06,5.75-20.63,7.45-31.24.43-2.7-1.39-4.67-1.58-7.16-1.13-15.22-5.98-28.85-17.61-39.35-1.7-1.53-2.29-4.25-4.99-4.69-.21-.26-.43-.52-.64-.78-.21-.26-.41-.52-.62-.78-.53-.52-1.05-1.03-1.58-1.55,0,0,.02.03.02.03-.05-.46-.24-.79-.78-.79,0,0,.03.03.03.03-.01-.5.08-1.11-.77-.79,0,0,.04.04.04.04-1.11-3.23-3.66-5.32-6.04-7.53,0,0,.03.03.03.03-.53-.72-1.05-1.43-1.58-2.15,3.74-1.46,4.64,2.28,6.91,3.59,9.11,5.24,15.6,12.84,21.05,21.62,6.21,10.01,9.9,20.94,10.88,32.5.94,10.98.37,21.99-3.47,32.67-4.15,11.54-9.09,22.45-18.75,30.55-1.73,1.45-2.57,3.33-2.35,5.63-8.48,1.37-17.01.71-25.53.69-1.57-1.11-2.05-2.61-.76-4.05,1.3-1.46,1.56-3.25,2.26-4.91.54-.96,2.08-.83,2.32-2.12v.02c1.04.03,1.23-.71,1.33-1.52Z"/>
      <path class="cls-11" d="M637.47,242.91c-.22-2.3.62-4.18,2.35-5.63,9.66-8.1,14.6-19.01,18.75-30.55,3.84-10.68,4.41-21.69,3.47-32.67-.99-11.55-4.67-22.49-10.88-32.5-5.45-8.78-11.93-16.38-21.05-21.62-2.27-1.31-3.18-5.05-6.91-3.59-.48-.05-.96-.1-1.45-.15,0,0,.05.04.05.04.49-.99-.35-.81-.83-.95-.26-.43-.52-.85-.77-1.28-.2-.01-.4-.02-.59-.04-1.34-.68-2.68-1.37-4.03-2.05-.62-1.71-1.72-2.88-3.57-3.2,0,0,.02.02.02.02-.21-.86-.88-.8-1.53-.77,0,0,.03.02.03.02-.22-.84-.89-.78-1.53-.77,0,0,.03.02.03.02-.76-1-1.75-1.55-3.03-1.52,0,0,.03.02.03.02.04-.24.02-.48-.05-.71,3.2-.7,6.35.28,8.98,1.56,4.49,2.18,9.11,4.02,13.34,7.03,4.5,3.2,9.1,6.32,13.2,9.99,5.82,5.2,10.81,11.14,14.45,18.19,3.59,6.95,6.48,14.13,8.14,21.76,2.31,10.63,2.16,21.23.72,32.08-1.85,13.91-7.62,25.96-14.95,37.53-.59.93-1.25,1.99-2.15,2.53-2.36,1.43-3.06,3.45-2.76,6.01-2.41.89-4.93,1.13-7.47,1.2Z"/>
      <path class="cls-11" d="M613.45,234.64c-.7,1.65-.96,3.45-2.26,4.91-1.29,1.44-.81,2.94.76,4.05-6.25.05-12.49.09-18.74.14,1.95-1.74,4.93-1.14,6.84-2.98,0,0-.06.03-.06.03,1.44-.05,2.71-.56,3.79-1.52,0,0-.03.03-.03.03.63-.02,1.32.08,1.53-.77,0,0-.03.02-.03.02,1.27,0,2.36-.33,3.03-1.52,0,0-.03.02-.03.02,1.14-.26,2.9.72,3.04-1.52,0,0-.04.02-.04.02.45-.07.83-.2.78-.77,0,0-.03.03-.03.03.48-.05.97-.1,1.45-.15Z"/>
      <path class="cls-14" d="M588.62,98.72c2.71,2.29,6.28,2.1,9.4,3.19,2.3.8,4.63,1.43,6.5,3.09-3.23.29-5.74-1.86-8.7-2.61-5.09-1.28-10.22-2.25-15.35-3.24,2.64-1.57,5.39-1.08,8.14-.43Z"/>
      <path class="cls-2" d="M821.85,248.36q-6.94.08-5.59-6.74c.36-1.83.98-3.67.98-5.51,0-4.25,2.03-5.58,6.02-4.98,1.71.26,3.5-.06,5.24.07,6.18.45,8.85,4.49,6.76,10.34-1.41,3.97-4.22,6.43-8.54,6.78-1.61.13-3.24.02-4.86.02Z"/>
      <path class="cls-3" d="M605.23,230.22c-.42-2.33-2.16-3.64-4.02-4.58-10.8-5.43-17.55-14.54-23.06-24.86-.89-1.66-.6-3.38-.65-5.1,1.81,1.72,2.98,4.05,5.2,5.36,0,0-.02-.02-.02-.02.34.59.62,1.29,1.53.79,0,0-.05-.04-.05-.04-.64,1.1.81,1.31.89,2.1-.11,1.39-.15,2.72,1.01,3.8,4.62,4.28,8.87,9.02,14.56,11.97,1.57.81,2.51,3.34,4.15,2.88,3.62-1.02,3.98,1.14,4.45,3.57-.92.65-2.04,1.16-1.81,2.6,0,0,.02-.02.02-.02-.5.02-.76.28-.77.78,0,0,.03-.03.03-.03-.5.02-.75.29-.77.78,0,0,.03-.03.03-.03-.24,0-.49,0-.73.04Z"/>
      <path class="cls-14" d="M582.7,201.04c-2.22-1.31-3.4-3.64-5.2-5.36-.28-.72-.55-1.44-.83-2.15,2.88,1.81,4.66,4.5,6.03,7.51Z"/>
      <path class="cls-14" d="M573.67,187.52c1.78,1.62,2.81,3.62,3.02,6.03-1.56-1.73-3.08-3.48-3.02-6.03Z"/>
      <path class="cls-14" d="M572.17,183.76c1.75.76,1.69,2.25,1.52,3.78-.99-1.07-1.57-2.3-1.52-3.78Z"/>
      <path class="cls-14" d="M604.44,231.67c.05.56-.23.81-.77.78-.01-.53.27-.77.77-.78Z"/>
      <path class="cls-14" d="M603.7,232.42c.03.55-.23.8-.78.78,0-.51.24-.79.78-.78Z"/>
      <path class="cls-14" d="M602.95,233.17c.04.56-.25.79-.78.77-.04-.56.26-.78.78-.77Z"/>
      <path class="cls-14" d="M602.2,233.92c0,.54-.3.76-.81.75-.31-.87.33-.73.81-.75Z"/>
      <path class="cls-14" d="M605.19,230.92c.05.57-.21.82-.78.77,0-.52.26-.78.78-.77Z"/>
      <path class="cls-14" d="M605.23,230.22c.24-.03.48-.04.73-.04.03.55-.23.81-.79.77-.04-.25-.02-.49.06-.73Z"/>
      <path class="cls-2" d="M520.49,333.36c0-.75-.15-1.53.03-2.24.58-2.3-1.67-5.73,1.43-6.82,4.8-1.69,11.35.93,13.24,4.47,2.83,5.29-.08,11.99-5.78,13.31-7.81,1.81-8.93.95-8.93-6.85,0-.62,0-1.25,0-1.87Z"/>
      <path class="cls-8" d="M169.81,323.9c5.34-.09,9.13,3.85,9.21,9.59.07,5.1-3.78,9.18-8.72,9.25-5.17.08-9.05-3.63-9.17-8.77-.14-5.79,3.48-9.98,8.68-10.07Z"/>
      <path class="cls-11" d="M463.83,325.37c1.44,3.38,2.52,6.14,3.79,8.8.9,1.89.3,2.27-1.59,2.37-7.27.4-7.27.45-4.37-6.26.63-1.46,1.28-2.91,2.16-4.92Z"/>
      <path class="cls-11" d="M283.84,325.39c1.49,3.44,2.71,6.28,3.95,9.1.61,1.39.3,2.14-1.34,2.02-2.3-.18-5.33,1.01-6.68-.54-1.04-1.19,1.15-3.72,1.91-5.65.59-1.48,1.27-2.92,2.15-4.94Z"/>
      <path class="cls-11" d="M634.09,336.5c.82-3.93,2.89-7.03,4.32-11.32,1.61,3.68,2.89,6.6,4.17,9.53.56,1.3.04,1.81-1.29,1.8-2.32-.03-4.65,0-7.19,0Z"/>
      <path class="cls-14" d="M596.95,237.67c.05.58-.24.8-.78.78,0-.52.33-.71.78-.78Z"/>
      <path class="cls-13" d="M607.27,189.58c-.25-.02-.62.06-.72-.07-2.48-3.1-5.62-2.55-9.07-2.24-2.88.26-4.35-2.8-6.24-4.66-1.73-1.7-2.04-4.48-4.4-5.68-1.85-6.91-1.08-13.78.1-20.69,1.78-10.41,5.6-20.31,7.54-30.69.58-3.07-.54-6.49,1.74-9.23,0,0-.03-.02-.03-.02.46.94,1.04,1.72,2.27,1.52,0,0-.03-.02-.03-.02-.12.64.26.78.78.77,0,0-.03-.03-.03-.03,0,.52.31.73.78.77,0,0-.02-.02-.02-.02.48.92.99,1.79,2.27,1.53,0,0-.03-.03-.03-.03-.2,1.22.63,1.41,1.53,1.52,0,0-.02-.02-.02-.02.02.5.29.74.77.77,0,0-.02-.02-.02-.02.03.49.29.74.77.77,0,0-.02-.02-.02-.02.19.83.69,1.34,1.52,1.52,0,0-.02-.02-.02-.02.79,2.14,3.17,2.98,4.11,5-5.76.61-10.63,4.37-10.6,9.92.04,7.55-2.17,15.39,1.69,22.69.43.81.31,1.66.11,2.54-.59,2.66.48,4.06,3.26,4.06.07.24.07.57.23.7.28.23.46.07.43-.31-.07-.84.27-1.77-.58-2.43.78-3.03.34-6.31,1.88-9.42q.48,4.64,2.38,5.44c.59,8.82-1.03,17.44-2.31,26.1ZM604.05,175.99c-.19.34-.39.61-.52.91-.2.49.11.69.49.49.22-.12.32-.56.38-.87.02-.13-.19-.3-.35-.53ZM604.83,174.15c.12-.22.33-.42.32-.61-.01-.37.18-1.17-.35-.98-.47.17-.38,1.03.02,1.59Z"/>
      <path class="cls-4" d="M635.09,130.59c2.69.44,3.29,3.16,4.99,4.69,11.63,10.5,16.49,24.12,17.61,39.35.18,2.48,2.01,4.45,1.58,7.16-1.7,10.6-3.22,21.18-7.45,31.24-4.26,10.14-10.83,18.16-19.78,24.34-1.71,1.18-3.77,2.69-5.88,1.61-2.23-1.15-2.24-3.7-2.15-5.95.09-2.03-.26-3.96-.8-5.89.27-.46.54-.92.81-1.38,0,0-.03.02-.03.02.26-.26.52-.52.78-.78,0,0-.03.03-.03.03,1.63-1.22,3.14-2.54,3.9-4.51,2.22-1.36,2.63-4.06,4.32-5.81,1.32-.67,1.91-1.87,2.3-3.2,0,0-.02.02-.02.02,1.26-1.49,2.77-2.87,2.17-5.14.19-.26.38-.51.57-.77,2.13-.81,1.9-3.25,3.2-4.63,1.75-.09,2.68.61,2.08,2.44-.3.92-.95,1.73-1.3,2.64-.33.87-1.05,1.89.09,2.68,1.04.72,2.01-.03,2.69-.62,1.78-1.55,3.4-3.28,4.27-5.53,4.16-10.77,4.59-21.81,3.18-33.2-.89-7.17-5.71-12.91-6.27-20.11-.11-1.45-1.54-3.06-3.31-3.71l.03.03-.5-.83c-1.23-2.31-.57-5.7-3.9-6.81,0,0,.03.04.03.04.47-1.01.05-1.72-.78-2.28,0,0,.02.03.02.03.03-.66.02-1.29-.77-1.53,0,0,.02.03.02.03.15-1.55-1.67-2.19-1.68-3.67Z"/>
      <path class="cls-4" d="M605.25,169.5c-2.78,0-3.85-1.4-3.25-4.06.2-.89.32-1.74-.11-2.54-3.86-7.3-1.65-15.14-1.69-22.69-.03-5.55,4.84-9.31,10.6-9.92.38.08.77.16,1.15.23,2.22,3.27,4.44,6.53,6.66,9.8-.62.26-1.22,1.85-1.88.26-1.44-3.43-3.85-2.97-6.39-1.72-2.79,1.37-4.74,3.22-2.97,6.71.6,1.19.6,2.65,1.57,3.7-.14,1.6.46,3.05.91,4.52.08,1.5,1.03,2.87.64,4.43-1.65,1.52-.29,3.56-.91,5.26q-1.9-.8-2.38-5.44c-1.54,3.11-1.1,6.39-1.88,9.42-.03.68-.05,1.36-.08,2.04Z"/>
      <path class="cls-3" d="M608.94,149.28c-.97-1.04-.97-2.51-1.57-3.7-1.77-3.49.18-5.34,2.97-6.71,2.54-1.25,4.95-1.71,6.39,1.72.67,1.59,1.27,0,1.88-.26.18.49.36.97.55,1.46.45,1.1.66,2.34,1.79,3.03,0,0-.03-.04-.03-.04.02.63-.08,1.32.77,1.54,0,0-.02-.03-.02-.03.72,2.25,1.43,4.49,2.15,6.74-2.18-1.13-3.02-3.44-4.09-5.32-1.78-3.12-4.55-3.67-7.45-3.52-2.95.15-2.72,3.05-3.34,5.1Z"/>
      <path class="cls-14" d="M609.58,163.49c.62-1.7-.74-3.74.91-5.26.18.25.36.5.54.75.46,1.51-.27,3.24.84,4.64,0,0-.04-.01-.04-.01.14,2.74.04,5.52,1,8.16-.08,7.42-.17,14.85-.25,22.27-1.46,4.51-1.23,9.46-3.53,13.76l-.03-.02c.1-5.72,1.94-11.17,2.51-16.85.8-7.99,0-15.81-.76-23.72,0,8.8-1,17.44-3.39,26.11-1.32-1.46.05-2.58-.1-3.74,1.28-8.65,2.9-17.28,2.31-26.1Z"/>
      <path class="cls-14" d="M638.25,137.97c3.32,1.11,2.66,4.5,3.9,6.81-.09.43.07.72.5.83,0,0-.03-.03-.03-.03.19.84.31,1.71.58,2.52,3.89,11.81,4.36,23.86,2.57,36.06-.85,5.79-2.98,11.23-4.59,16.82-1.29,1.39-1.07,3.82-3.2,4.63,2.24-6.56,5.04-12.9,6.35-19.8,3.05-16.01,1.24-31.33-5.62-46.08-.25-.54-.31-1.18-.46-1.77Z"/>
      <path class="cls-14" d="M596.22,116.32c-2.28,2.74-1.16,6.16-1.74,9.23-1.95,10.38-5.76,20.28-7.54,30.69-1.18,6.9-1.94,13.78-.1,20.69.17,1.49.34,2.98.51,4.48-.13.11-.26.21-.39.31-1.37-1.91-1.63-4.27-1.78-6.39-.38-5.42-.64-10.91-.17-16.3.58-6.68,3.27-12.94,4.93-19.41,1.92-7.45,4.37-14.8,4.08-22.65-.03-.71-.23-1.69.69-1.91.77-.18,1.37.41,1.52,1.26Z"/>
      <path class="cls-14" d="M624.61,153.87c3.16,3.46,3.13,8.05,3.68,12.17,1.88,14.08-.05,27.77-5.74,40.87-.54,1.24-.78,2.67-2.41,3.02,0,0,0,0,0,0,1.57-4.46,4.02-8.61,4.68-13.39,1.79-3.59,2.21-7.61,2.57-11.42.55-5.93,1.21-12-.38-17.94-.21-.74.41-1.75-.71-2.19-.07-.49-.13-.98-.2-1.47.31-1.59-1.18-2.91-.7-4.52.61-1.84-.88-3.36-.8-5.12h0Z"/>
      <path class="cls-14" d="M602.84,203.1c1.1-2.85,2.21-5.69,3.31-8.54.28,3.44-.93,6.32-2.88,8.93-.15-.12-.29-.25-.43-.39Z"/>
      <path class="cls-14" d="M624.74,118.47c2.38,2.21,4.93,4.3,6.04,7.53-2.65-2-4.92-4.3-6.04-7.53Z"/>
      <path class="cls-14" d="M594.84,209.1c2.65.96,5.39,1.71,7.57,3.64-.11.15-.23.3-.35.45-2.58-1.16-5.15-2.31-7.73-3.47.17-.21.34-.41.51-.62Z"/>
      <path class="cls-14" d="M611.95,130.52c-.38-.08-.77-.15-1.15-.23-.94-2.02-3.31-2.86-4.11-5,2.65.84,4.14,2.85,5.25,5.24Z"/>
      <path class="cls-14" d="M635.09,130.59c0,1.48,1.83,2.12,1.68,3.67-2.43-1.64-4.22-3.72-4.52-6.78.53.52,1.05,1.03,1.58,1.55.21.26.41.52.62.78.21.26.43.52.64.78Z"/>
      <path class="cls-14" d="M585.05,203.87c-.08-.79-1.53-1.01-.89-2.1,2.12,1.09,4.32,2.08,5.27,4.53,0,0,0,0,0,0l-4.37-2.43Z"/>
      <path class="cls-14" d="M623.82,153.02c-.72-2.25-1.43-4.49-2.15-6.74,2.55,1.92,2.95,4.68,2.94,7.59,0,0,0,0,0,0-.21-.02-.42-.06-.62-.12-.05-.25-.11-.49-.16-.74Z"/>
      <path class="cls-14" d="M637.42,206.39c.6,2.27-.91,3.66-2.17,5.14-.19-2.1.97-3.63,2.17-5.14Z"/>
      <path class="cls-14" d="M612.01,108.73c1.86.32,2.96,1.49,3.57,3.2-1.57-.65-3.11-1.32-3.57-3.2Z"/>
      <path class="cls-14" d="M624.02,225.75c-.27.46-.54.92-.81,1.38-1.23.68-2.08,2.02-3.63,2.17.94-1.86,2.28-3.22,4.44-3.55Z"/>
      <path class="cls-14" d="M607.43,228.7c-.23-1.45.89-1.95,1.81-2.6.25-.28.5-.56.75-.83.21.2.42.39.62.59-.59,1.48-1.32,2.8-3.18,2.85Z"/>
      <path class="cls-14" d="M628.64,220.51c-.76,1.97-2.26,3.3-3.9,4.51.32-2.35,1.94-3.58,3.9-4.51Z"/>
      <path class="cls-14" d="M606.56,212.84c.5-1.84.39-3.98,2.47-5.06,0,0,.03.02.03.02-.22,1.98-1,3.72-2.19,5.3-.1-.08-.2-.17-.3-.26Z"/>
      <path class="cls-14" d="M613.43,221.19c.38,2.36-1.54,3.32-2.82,4.66-.21-.2-.42-.39-.62-.59,1.14-1.37,2.28-2.73,3.42-4.1l.02.02Z"/>
      <path class="cls-14" d="M602.42,212.74c1.39-.12,2.74,1.23,4.14.1.1.09.2.17.3.26-.08.44-.15.89-.23,1.33-1.72.32-3.19-.29-4.57-1.24.12-.15.24-.3.35-.45Z"/>
      <path class="cls-14" d="M588.86,185.97c1.36,1.27,1.87,2.24,1.88,3.83-1.5-.92-1.96-1.95-1.88-3.83Z"/>
      <path class="cls-14" d="M616.41,216.69c.27,1.8-.4,3.13-2.03,3.96-.1-.09-.2-.19-.3-.28.43-1.44,1.35-2.58,2.3-3.69l.02.02Z"/>
      <path class="cls-14" d="M613.45,234.64c-.48.05-.97.1-1.45.15.72-1.65,1.94-2.47,3.77-2.28-.24,1.29-1.78,1.16-2.32,2.12Z"/>
      <path class="cls-14" d="M618.66,212.92c.13,1.78-.08,3.35-2.24,3.77,0,0-.02-.02-.02-.02.3-.72.6-1.45.89-2.17.69-.26.63-.91.77-1.46.2-.04.39-.08.58-.14v.02Z"/>
      <path class="cls-14" d="M587.35,181.41c.71.97,1.41,1.95,1.22,3.5-1.6-.66-1.24-2.12-1.61-3.19.13-.1.26-.2.39-.31Z"/>
      <path class="cls-14" d="M635.27,211.51c-.4,1.33-.98,2.53-2.3,3.2.19-1.48.35-2.98,2.3-3.2Z"/>
      <path class="cls-14" d="M603.77,239.26c-1.08.96-2.34,1.47-3.79,1.52.75-1.79,2.27-1.65,3.79-1.52Z"/>
      <path class="cls-14" d="M598.98,201.23c-.75-.46-1.82-.68-1.51-2,1.35-.23,1.54.8,1.88,1.64-.12.12-.25.24-.37.36Z"/>
      <path class="cls-14" d="M589.43,206.3c1.89-.44,2.94.75,3.92,2.05-.08.1-.16.2-.25.29-1.49-.36-2.54-1.41-3.68-2.34h0Z"/>
      <path class="cls-14" d="M611.28,235.51c-.14,2.24-1.9,1.27-3.04,1.52.51-1.52,1.67-1.72,3.04-1.52Z"/>
      <path class="cls-14" d="M621.75,116.2c.48.05.96.1,1.45.15.53.72,1.05,1.43,1.58,2.15-1.74.19-2.45-.96-3.02-2.3Z"/>
      <path class="cls-14" d="M608.27,237.02c-.67,1.19-1.76,1.52-3.03,1.52.52-1.48,1.67-1.71,3.03-1.52Z"/>
      <path class="cls-14" d="M605.99,105.72c1.28-.02,2.26.53,3.03,1.52-1.37.21-2.56.06-3.03-1.52Z"/>
      <path class="cls-14" d="M620.95,144.81c-1.14-.69-1.34-1.93-1.79-3.03,1.67.38,1.97,1.56,1.79,3.03Z"/>
      <path class="cls-14" d="M617.1,231.01c-.11.81-.29,1.55-1.35,1.52-.22-1.1.59-1.28,1.35-1.52Z"/>
      <path class="cls-14" d="M602.21,120.82c-1.28.27-1.79-.6-2.27-1.53,1.22-.19,1.88.47,2.27,1.53Z"/>
      <path class="cls-14" d="M603.27,203.49c-.68,1.56-1.36,1.49-2.03,0,.12-.13.25-.25.37-.38.41,0,.82,0,1.23,0,.13.14.28.27.43.39Z"/>
      <path class="cls-14" d="M598.46,117.82c-1.23.2-1.81-.58-2.27-1.52,1.18-.13,1.9.43,2.27,1.52Z"/>
      <path class="cls-14" d="M606.71,125.31c-.83-.18-1.33-.69-1.52-1.52,1.09-.08,1.58.44,1.52,1.52Z"/>
      <path class="cls-14" d="M620.15,209.93c.28.91.23,1.76-.53,2.44-.21-.18-.41-.36-.62-.54.38-.64.77-1.27,1.15-1.91h0Z"/>
      <path class="cls-14" d="M603.71,122.31c-.9-.11-1.73-.3-1.53-1.52.83.18,1.43.6,1.53,1.52Z"/>
      <path class="cls-14" d="M637.49,135.73c.84.56,1.25,1.27.78,2.28-1.01-.5-.94-1.37-.78-2.28Z"/>
      <path class="cls-14" d="M610.49,107.97c.66-.03,1.33-.09,1.53.77-.69.1-1.37.17-1.53-.77Z"/>
      <path class="cls-14" d="M608.99,107.22c.64,0,1.32-.07,1.53.77-.67.06-1.38.19-1.53-.77Z"/>
      <path class="cls-14" d="M605.97,105.03c.08.23.1.47.05.71-.7.12-1.38.18-1.54-.78.49.02.99.04,1.48.06Z"/>
      <path class="cls-14" d="M605.27,238.51c-.21.85-.9.75-1.53.77.15-.97.85-.85,1.53-.77Z"/>
      <path class="cls-14" d="M584.21,201.81c-.9.5-1.19-.2-1.53-.79.76-.23,1.32-.06,1.53.79Z"/>
      <path class="cls-14" d="M593.35,208.35c.5.25.99.5,1.49.76-.17.21-.34.41-.5.62-.41-.36-.82-.72-1.23-1.08.08-.1.16-.2.25-.29Z"/>
      <path class="cls-14" d="M594.04,194.18c.4.29.89.83.42,1.11-.58.34-.56-.44-.68-.83.09-.1.18-.19.26-.28Z"/>
      <path class="cls-14" d="M591.89,191.07c.27.48.54.96.81,1.45-.13.13-.25.26-.38.38-.27-.49-.54-.97-.8-1.46.13-.12.25-.25.37-.37Z"/>
      <path class="cls-14" d="M621.69,146.31c-.85-.21-.75-.91-.77-1.54.87.21.9.83.77,1.54Z"/>
      <path class="cls-14" d="M636.74,134.23c.79.24.8.87.77,1.53-.96-.16-.86-.85-.77-1.53Z"/>
      <path class="cls-14" d="M620.97,115.29c.48.14,1.32-.04.83.95-.75.1-.75-.46-.83-.95Z"/>
      <path class="cls-14" d="M631.5,126.72c.53,0,.72.32.78.79-.54.02-.77-.27-.78-.79Z"/>
      <path class="cls-14" d="M630.75,125.96c.86-.32.76.29.77.79-.55.02-.74-.31-.77-.79Z"/>
      <path class="cls-14" d="M605.21,123.81c-.49-.03-.75-.28-.77-.77.54-.03.79.23.77.77Z"/>
      <path class="cls-14" d="M612.03,234.76c.05.57-.34.7-.78.77-.05-.57.25-.79.78-.77Z"/>
      <path class="cls-14" d="M604.46,123.06c-.48-.03-.75-.27-.77-.77.54-.02.79.23.77.77Z"/>
      <path class="cls-14" d="M619.61,212.37c-.2.39-.44.72-.96.55,0,0-.02-.02-.02-.02.12-.36.24-.71.36-1.07.21.18.41.36.62.54Z"/>
      <path class="cls-14" d="M592.7,192.52c.21.29.43.58.64.87-.11.1-.22.21-.32.31-.23-.27-.47-.53-.7-.8.13-.13.25-.26.38-.38Z"/>
      <path class="cls-3" d="M619.61,113.98c.2.01.4.02.59.04-.11.15-.22.3-.32.45-.09-.16-.18-.32-.27-.48Z"/>
      <path class="cls-14" d="M591.52,191.45c-.28-.25-.58-.51-.12-.84.04-.02.32.3.49.47-.12.12-.24.25-.37.37Z"/>
      <path class="cls-14" d="M600.5,202.71c-.25-.24-.5-.49-.75-.74.12-.13.24-.25.36-.38.24.27.48.54.72.8-.11.1-.22.21-.33.31Z"/>
      <path class="cls-14" d="M614.39,220.64c-.2.4-.45.7-.96.54,0,0-.02-.02-.02-.02.23-.27.46-.53.69-.8.1.09.2.19.3.28Z"/>
      <path class="cls-14" d="M593.35,193.39c.23.26.46.53.69.79-.09.09-.17.18-.26.28-.25-.25-.5-.51-.75-.76.11-.1.21-.21.32-.31Z"/>
      <path class="cls-14" d="M599.22,118.56c-.52,0-.9-.13-.78-.77.48.03.75.28.78.77Z"/>
      <path class="cls-14" d="M600.83,202.4c.26.23.52.47.78.7-.12.13-.24.25-.37.38-.25-.26-.49-.51-.74-.77.11-.1.21-.21.32-.31Z"/>
      <path class="cls-14" d="M599.96,119.31c-.47-.05-.78-.25-.78-.77.49.03.79.24.78.77Z"/>
      <path class="cls-14" d="M599.35,200.87c.25.24.5.48.76.72-.12.12-.24.25-.36.38-.25-.25-.51-.5-.76-.75.12-.12.25-.24.37-.35Z"/>
      <path class="cls-14" d="M606.68,229.46c.02-.5.27-.76.77-.78.04.55-.23.81-.77.78Z"/>
      <path class="cls-14" d="M605.93,230.21c.03-.49.28-.76.77-.78.03.54-.21.82-.77.78Z"/>
      <path class="cls-14" d="M624.77,224.99c-.26.26-.52.52-.78.78-.03-.55.23-.81.78-.78Z"/>
      <path class="cls-4" d="M634.45,129.8c-.21-.26-.41-.52-.62-.78.21.26.41.52.62.78Z"/>
      <path class="cls-4" d="M614.09,220.36c-.23.27-.46.53-.69.8-1.14,1.37-2.28,2.73-3.42,4.1-.25.28-.5.56-.75.83-.47-2.43-.83-4.59-4.45-3.57-1.64.46-2.59-2.06-4.15-2.88-5.7-2.95-9.94-7.69-14.56-11.97-1.17-1.08-1.13-2.42-1.01-3.8,1.46.81,2.91,1.62,4.37,2.43,1.13.92,2.18,1.98,3.68,2.34.41.36.82.72,1.23,1.08,2.57,1.16,5.15,2.31,7.73,3.47,1.38.95,2.85,1.56,4.57,1.24,2.02,1.79,5.51,2.63,6.57,1.14,1.52-2.13,2.71-.95,4.08-1.07-.3.72-.6,1.45-.89,2.17-.95,1.12-1.87,2.25-2.3,3.69Z"/>
      <path class="cls-10" d="M605.25,169.5c.03-.68.05-1.36.08-2.04.85.66.51,1.59.58,2.43.03.37-.15.53-.43.31-.16-.13-.16-.46-.23-.7Z"/>
      <path class="cls-10" d="M604.05,175.99c.16.22.37.4.35.53-.06.31-.15.75-.38.87-.37.21-.68,0-.49-.49.12-.31.32-.58.52-.91Z"/>
      <path class="cls-10" d="M604.83,174.15c-.4-.56-.49-1.42-.02-1.59.52-.2.34.6.35.98,0,.2-.2.4-.32.61Z"/>
      <path class="cls-13" d="M641.18,200.98c1.61-5.58,3.75-11.03,4.59-16.82,1.79-12.21,1.32-24.26-2.57-36.06-.27-.82-.39-1.68-.58-2.52,1.77.66,3.19,2.26,3.31,3.71.56,7.2,5.38,12.94,6.27,20.11,1.41,11.39.98,22.43-3.18,33.2-.87,2.25-2.5,3.99-4.27,5.53-.68.59-1.65,1.35-2.69.62-1.14-.79-.43-1.81-.09-2.68.35-.91,1-1.72,1.3-2.64.6-1.83-.33-2.53-2.08-2.44Z"/>
      <path class="cls-13" d="M642.65,145.6c-.44-.11-.6-.4-.5-.83.17.28.34.55.5.83Z"/>
      <path class="cls-2" d="M626.1,163.52c.07.49.13.98.2,1.47-1.6.16-1.6,1.2-1.43,2.44.49,3.64-.69,4.47-4.2,3.02-1.94-.8-3.56-2.88-6.14-.92.48-3,.3-5.19-2.69-5.93,0,0,.04.01.04.01-.1-1.58.84-3.35-.84-4.64-.18-.25-.36-.5-.54-.75.39-1.56-.56-2.93-.64-4.43,1.58-.39,2.38-1.82,3.25-2.9,2.02-2.51,4.42-2.59,5.55.47,1.05,2.85,3.33,4.29,5.3,6.15.54,2.06-1.45,5.02,2.14,6Z"/>
      <path class="cls-11" d="M623.96,157.52c-1.98-1.86-4.25-3.3-5.3-6.15-1.13-3.06-3.53-2.98-5.55-.47-.87,1.08-1.67,2.51-3.25,2.9-.45-1.48-1.05-2.93-.91-4.52.61-2.05.38-4.95,3.33-5.1,2.91-.15,5.67.4,7.45,3.52,1.07,1.88,1.91,4.19,4.09,5.32.05.25.11.49.16.74,0,1.25,0,2.5,0,3.75l-.02.02Z"/>
      <path class="cls-4" d="M619,211.83c-.12.36-.24.71-.36,1.07-.19.05-.39.1-.58.14-1.18-.18-2.51-.57-2-2.02,2.25-6.4-3.13-11.17-3.47-16.98.08-7.42.17-14.85.25-22.27,1.04,1.11.47,2.49.64,3.75,0,2.61-.02,5.22,0,7.83.02,2.12.39,3.87,3.17,2.51.79-.38,1.24-.07,1.24.68,0,4.14,5.53,5.31,5.21,9.65,0,.08,1.13.24,1.73.36-.66,4.78-3.11,8.93-4.68,13.39-.38.64-.77,1.27-1.15,1.91Z"/>
      <path class="cls-11" d="M613.47,175.51c-.18-1.26.39-2.64-.64-3.75-.96-2.64-.85-5.42-1-8.16,3,.73,3.17,2.93,2.69,5.93,2.58-1.97,4.21.11,6.14.92,3.51,1.45,4.69.62,4.2-3.02-.17-1.25-.17-2.28,1.43-2.44,1.12.44.5,1.45.71,2.19-.01,4.32.02,8.64-.08,12.96-.02.84.48,2.85-1.44,1.96-2.43-1.13-5.77-2.33-6.63-4.37-1.38-3.26-3.35-2.17-5.38-2.22Z"/>
      <path class="cls-13" d="M612.58,194.04c.34,5.82,5.72,10.58,3.47,16.98-.51,1.44.82,1.84,2,2.02-.14.55-.08,1.21-.77,1.46-1.37.12-2.57-1.06-4.08,1.07-1.06,1.49-4.55.65-6.57-1.14.08-.44.15-.89.23-1.33,1.19-1.58,1.97-3.32,2.19-5.3,2.3-4.3,2.07-9.25,3.53-13.76Z"/>
      <path class="cls-11" d="M611.03,158.98c1.68,1.29.74,3.06.84,4.64-1.11-1.4-.38-3.13-.84-4.64Z"/>
      <path class="cls-3" d="M613.47,175.51c2.04.05,4.01-1.04,5.38,2.22.86,2.05,4.2,3.24,6.63,4.37,1.93.89,1.42-1.12,1.44-1.96.1-4.32.07-8.64.08-12.96,1.59,5.94.94,12,.38,17.94-.36,3.82-.77,7.83-2.57,11.42-.6-.12-1.73-.28-1.73-.36.32-4.34-5.21-5.51-5.21-9.65,0-.75-.45-1.07-1.24-.68-2.78,1.35-3.15-.39-3.17-2.51-.02-2.61,0-5.22,0-7.83Z"/>
      <path class="cls-11" d="M626.1,163.52c-3.59-.97-1.6-3.93-2.14-6,0,0,.02-.02.02-.02.47.5.95.99,1.42,1.49-.48,1.62,1.01,2.93.7,4.52Z"/>
      <path class="cls-3" d="M625.4,158.99c-.47-.5-.95-.99-1.42-1.49,0-1.25,0-2.5,0-3.75.2.06.41.1.62.12-.09,1.76,1.41,3.28.8,5.12Z"/>
    </g>
  </g>
</svg>