<?xml version="1.0" encoding="UTF-8"?>
<svg id="Livello_2" data-name="Livello 2" xmlns="http://www.w3.org/2000/svg" viewBox="0 0 864.2 293.96">
  <defs>
    <style>
      .cls-1 {
        fill: #25462b;
      }

      .cls-1, .cls-2, .cls-3, .cls-4, .cls-5, .cls-6, .cls-7, .cls-8, .cls-9, .cls-10, .cls-11, .cls-12 {
        stroke-width: 0px;
      }

      .cls-2 {
        fill: #dddddf;
      }

      .cls-3 {
        fill: #c7caca;
      }

      .cls-4 {
        fill: #194522;
      }

      .cls-5 {
        fill: #194523;
      }

      .cls-6 {
        fill: #2a4b30;
      }

      .cls-7 {
        fill: #1e4727;
      }

      .cls-8 {
        fill: #64bc7e;
      }

      .cls-9 {
        fill: #e5e8e7;
      }

      .cls-10 {
        fill: #184522;
      }

      .cls-11 {
        fill: #b5bdb9;
      }

      .cls-12 {
        fill: #3a6947;
      }
    </style>
  </defs>
  <g id="Livello_1-2" data-name="Livello 1">
    <g>
      <path class="cls-5" d="M272.24,2.03c-5.18,4.84-10.47,9.55-15.5,14.54-6.65,6.59-13.12,13.36-19.6,20.13-1.41,1.47-2.89,2.04-4.93,2.04-26.99-.05-53.98.14-80.97-.1-12.98-.11-25.92.26-38.87,1.03-10.71.63-17.18,7.24-18.26,18.55-.91,9.48,5.07,18.05,14.5,20.41,11.28,2.83,22.86,3.86,34.35,5.32,27.09,3.45,54.17,6.95,80.55,14.31,8.43,2.35,16.39,5.9,23.84,10.56,14.08,8.8,21.24,21.45,22.15,38.06.97,17.75-2.77,33.53-17.11,45.31-8.85,7.27-19.37,11.1-30.36,13.84-13.52,3.37-27.28,4.48-41.15,4.76-37.6.74-75.19.14-112.79.4-2.53.02-3.99-.73-5.35-2.95-6.84-11.16-13.89-22.19-20.85-33.27-.51-.81-1.62-1.57-1.19-2.58.48-1.12,1.77-.58,2.69-.58,41.1.08,82.2.06,123.3.38,11.62.09,23.2.11,34.75-1.34,10.07-1.26,15.73-6.9,17.45-17.47,1.38-8.43-3.34-16.98-11.58-20.67-7.58-3.39-15.7-4.94-23.82-6.12-23.44-3.4-46.92-6.51-70.38-9.78-15.48-2.15-30.75-5.18-44.89-12.2-21.67-10.76-30.01-27.08-27.87-52.89,2.01-24.2,18.39-38.56,41.23-45.02C96.93,2.36,112.6.77,128.5.39c21.36-.5,42.71-.17,64.07-.25,26.21-.1,52.42-.02,78.63-.02.35.63.69,1.27,1.04,1.9Z"/>
      <path class="cls-4" d="M555.7,36.47c10.91-11.66,21.83-23.31,32.7-35,1.06-1.14,2.23-1.36,3.66-1.36,22.74.02,45.49-.3,68.23.1,21.57.37,41.23,6.55,57.74,21.13,12.91,11.4,20.76,25.7,24.35,42.36,4.52,20.97,1.4,41.33-6.87,60.73-19.71,46.22-54.59,75.82-102.13,90.88-11.21,3.55-22.87,5.07-34.68,5.06-30.74-.03-61.48,0-92.65,0,1.87-3.27,4.51-5.48,6.76-7.95,7.89-8.68,15.98-17.18,23.89-25.84,2.41-2.64,4.95-4.02,8.73-3.8,6.1.36,12.24.04,18.36.13,1.65.02,3.17-.3,4.68-.82,1.54.2,2.95,1.07,4.57.81,6.25-.05,12.49-.09,18.74-.14,8.52.02,17.05.68,25.53-.69,2.54-.07,5.06-.31,7.47-1.2,3.88-.64,7.74-1.37,11.28-3.23.6-.15,1.23-.2,1.78-.45,35.84-16.03,57.64-43.06,62.3-82.3,3.62-30.47-15.8-54.49-45.38-56.48-20.42-1.38-40.96-.52-61.44-.22l-24.86-.3c-2.76-.65-5.5-1.14-8.14.43-1.49-.06-2.98-.12-4.48-.18-.04-.54-.09-1.08-.13-1.62Z"/>
      <path class="cls-10" d="M322.48,38.9h-66.1c5.38-5.69,10.27-10.9,15.21-16.06,6.47-6.77,13-13.48,19.46-20.26,1.28-1.34,2.57-1.96,4.52-1.96,87.34.06,174.69.05,262.03.05.95,0,1.89,0,3.49,0-8.49,8.94-16.46,17.31-24.42,25.7-3.18,3.35-6.47,6.61-9.44,10.13-1.64,1.94-3.41,2.45-5.82,2.45-51.86-.05-103.71,0-155.57-.12-3.29,0-4.68.75-5.56,4.08-15.26,57.7-30.7,115.36-45.98,173.06-.87,3.3-1.96,4.6-5.63,4.48-10.36-.32-20.74-.2-31.11-.06-2.79.04-3.24-.62-2.51-3.32,11.5-42.82,22.91-85.66,34.33-128.5,4.27-16.02,8.53-32.04,12.79-48.06.12-.46.18-.93.31-1.62Z"/>
      <path class="cls-4" d="M513.17,182.1c-12.28,12.89-23.82,24.98-35.31,37.11-.87.92-1.76,1.16-2.95,1.16-40.99-.05-81.97-.07-122.96-.1-.12,0-.24-.08-.7-.24,2.27-8.68,4.51-17.41,6.84-26.11,8.69-32.58,17.43-65.16,26.09-97.75.65-2.44,1.47-3.61,4.4-3.6,41.49.12,82.97.09,124.46.1,1.08,0,2.17.1,3.99.19-5.8,6.12-11.16,11.77-16.52,17.44-6.09,6.44-12.25,12.81-18.19,19.38-1.38,1.52-2.8,1.35-4.36,1.35-20.24.02-40.49.09-60.73-.07-2.97-.02-4.02.92-4.72,3.65-3.79,14.73-7.71,29.42-11.73,44.09-.78,2.83-.26,3.49,2.74,3.48,34.74-.11,69.48-.07,104.22-.07,1.45,0,2.91,0,5.43,0Z"/>
      <path class="cls-7" d="M814.17,219.83q-6.76,0-9.11-6.21c-1.81-4.77-3.85-9.47-5.38-14.33-.87-2.78-2.71-2.37-4.67-2.37-2.26,0-2.04,1.74-2.28,3.16-1.01,5.77-2.09,11.53-2.98,17.32-.29,1.87-.99,2.57-2.89,2.46-2.49-.14-5-.14-7.49,0-2.22.13-2.36-.78-2.02-2.67,3.23-17.9,6.4-35.81,9.53-53.73.37-2.11,1.01-3.23,3.54-3.08,8.34.49,16.75-.77,25.05.71,10.21,1.81,15.1,10.13,12,20-2.08,6.61-6.34,11.26-12.8,13.69-2.23.84-2.79,1.62-1.76,3.93,2.68,6.02,5.01,12.2,7.64,18.25.98,2.24.82,3.18-1.87,2.9-1.48-.15-3-.03-4.5-.03ZM801.69,187.48c1.62,0,3.25.11,4.86-.02,4.32-.36,7.13-2.82,8.54-6.78,2.09-5.85-.59-9.88-6.76-10.34-1.74-.13-3.53.19-5.24-.07-3.98-.61-6.01.72-6.02,4.98,0,1.84-.62,3.67-.98,5.51q-1.34,6.82,5.59,6.74Z"/>
      <path class="cls-7" d="M766.5,176.77c-1.25,0-2.51-.11-3.74.02-1.83.19-2.53-.43-2.9-2.34-.64-3.35-3.74-5.14-7.7-4.96-4.38.21-7.48,2.18-8.12,5.31-.52,2.55.34,4.61,2.43,6.21,2.4,1.84,5.16,3,7.83,4.33,2.57,1.27,5.19,2.43,7.66,3.88,11.25,6.59,11.48,21.16.15,27.64-8.94,5.1-18.44,4.93-27.56.19-4.76-2.47-6.98-6.85-6.96-12.33,0-1.82.64-2.42,2.4-2.32,1.99.11,4,.11,5.99,0,2.5-.14,4.19-.13,4.7,3.33.5,3.43,3.83,4.73,7.16,4.8,3.55.08,7.11-.27,9.02-3.96,1.6-3.09.67-5.99-2.43-8.02-4.29-2.81-9.19-4.39-13.74-6.68-5.93-2.99-9.74-7.29-9.62-14.26.13-7.36,3.74-12.58,10.32-15.56,7.13-3.24,14.57-3.35,21.87-.65,5.22,1.93,8.63,5.66,9.7,11.4.58,3.09-.14,4.48-3.45,4.01-.98-.14-1.99-.02-2.99-.03Z"/>
      <path class="cls-7" d="M.04,171.68c9.55,0,19.12.02,28.69-.02,1.25,0,1.69.79,2.23,1.64,7.45,11.81,14.89,23.62,22.39,35.39,1.22,1.91.96,2.52-1.38,2.48-6.87-.09-13.75-.05-20.62-.01-1.21,0-2.12-.27-2.89-1.28-9.46-12.41-18.94-24.79-28.41-37.19-.11-.15-.01-.45-.01-1.01Z"/>
      <path class="cls-7" d="M846.77,219.82c-4.37,0-8.74-.07-13.11.03-1.97.04-2.5-.34-2.1-2.53,3.26-17.89,6.37-35.8,9.47-53.71.39-2.27,1.16-3.27,3.79-3.25,9.34.09,9.23-.06,7.51,9.22-2.36,12.73-4.46,25.51-6.82,38.24-.41,2.21.28,2.59,2.21,2.56,4.74-.08,9.49,0,14.23-.05,1.88-.02,2.47.4,2.17,2.55-.98,6.95-.85,6.97-7.99,6.95-3.12,0-6.24,0-9.36,0Z"/>
      <path class="cls-12" d="M552.03,122.98c-2.78-6.58-2.64-13.53-2.56-20.47.03-2.46.15-4.92.24-7.38,1.27-7.14,2.6-14.28,3.78-21.44,1.02-6.22,2.06-12.42,2.6-18.73.44-5.17-.15-10.13-1.25-15.08-.34-1.51-.67-2.58.87-3.42.04.54.09,1.08.13,1.62,2.6,10.53,1.4,20.95-.6,31.43-2.63,13.76-5.04,27.55-4.69,41.67.1,4.01,2.04,7.73,1.48,11.79Z"/>
      <path class="cls-12" d="M573.05,182.86c-1.62.27-3.03-.61-4.57-.81,1.29-.95,2.59-1.9,3.88-2.85,1.06-.03,1.78-.63,2.38-1.42,0,0,0,.03,0,.03.43-.1.87-.2,1.3-.3.39,1.55-1.79,1.52-1.76,2.95,1.92.32,3.67-1.22,5.61-.58-1.91,1.84-4.89,1.24-6.84,2.98Z"/>
      <path class="cls-12" d="M579.84,173.92c.44-.08.88-.15,1.32-.23-.76,2.08-2.13,3.28-4.46,3.13.09-.22.14-.44.17-.67,0,0-.01,0-.01,0,.74-.52,1.48-1.03,2.22-1.55.25-.23.51-.46.76-.69Z"/>
      <path class="cls-8" d="M576.7,176.82c2.33.16,3.7-1.05,4.46-3.13,0,0,.06.1.06.1.51,0,.8-.22.81-.75,0,0-.03.03-.03.03.53.01.82-.21.78-.77,0,0-.03.03-.03.03.55.03.81-.23.78-.78,0,0-.03.03-.03.03.55.03.82-.21.77-.78,0,0-.02.02-.02.02.57.05.83-.21.78-.77,0,0-.03.03-.03.03.55.04.81-.22.79-.77l-.03.03c.56.05.8-.23.77-.78l-.03.03c.55.03.81-.22.77-.78l-.02.02c1.86-.05,2.59-1.37,3.18-2.85,1.28-1.35,3.2-2.31,2.82-4.66.51.15.77-.14.96-.54,1.63-.83,2.3-2.15,2.03-3.96,2.16-.42,2.37-1.99,2.24-3.77.52.17.76-.16.96-.55.77-.69.81-1.53.53-2.44,1.63-.35,1.87-1.78,2.41-3.02,5.69-13.09,7.62-26.78,5.74-40.87-.55-4.12-.52-8.71-3.68-12.17,0-2.91-.39-5.67-2.94-7.59l.02.03c.13-.71.1-1.33-.77-1.54l.03.04c.18-1.47-.12-2.65-1.79-3.03-.18-.49-.36-.97-.55-1.46-2.22-3.27-4.44-6.53-6.66-9.8-1.11-2.39-2.6-4.39-5.25-5.24l.02.02c.07-1.08-.42-1.6-1.52-1.52l.02.02c.02-.54-.23-.8-.77-.77l.02.02c.02-.53-.24-.79-.77-.77l.02.02c-.1-.92-.7-1.34-1.53-1.52l.03.03c-.39-1.06-1.05-1.71-2.27-1.53l.02.02c.02-.53-.29-.74-.78-.78l.03.03c-.03-.49-.3-.74-.78-.77l.03.02c-.37-1.09-1.09-1.65-2.27-1.52l.03.02c-.15-.85-.75-1.45-1.52-1.26-.91.22-.71,1.2-.69,1.91.29,7.85-2.17,15.2-4.08,22.65-1.66,6.47-4.36,12.73-4.93,19.41-.47,5.39-.2,10.88.17,16.3.15,2.12.41,4.48,1.79,6.39.38,1.07.02,2.53,1.61,3.19.18-1.55-.51-2.53-1.22-3.5-.17-1.49-.34-2.98-.51-4.47,2.36,1.2,2.67,3.98,4.4,5.68,1.89,1.86,3.36,4.92,6.24,4.66,3.46-.31,6.6-.86,9.07,2.24.1.13.47.05.72.07.15,1.16-1.21,2.29.1,3.74,2.39-8.68,3.39-17.32,3.39-26.11.76,7.91,1.56,15.73.76,23.72-.57,5.68-2.4,11.13-2.51,16.85-2.07,1.08-1.97,3.21-2.46,5.06-1.41,1.14-2.76-.22-4.14-.1-2.18-1.93-4.92-2.69-7.57-3.64-.5-.25-1-.5-1.49-.76-.98-1.3-2.03-2.48-3.92-2.05-.95-2.45-3.15-3.44-5.27-4.53l.05.04c-.21-.85-.76-1.02-1.53-.79l.02.02c-1.37-3.02-3.15-5.7-6.03-7.51,0,0,.02.02.02.02-.21-2.41-1.25-4.41-3.02-6.03,0,0,.02.03.02.03.17-1.53.23-3.02-1.52-3.78,0,0,.02.09.02.09.56-4.06-1.38-7.78-1.48-11.79-.35-14.12,2.06-27.92,4.69-41.67,2-10.47,3.2-20.9.6-31.43,1.49.06,2.98.12,4.48.18,5.14.99,10.27,1.96,15.35,3.24,2.96.74,5.47,2.89,8.7,2.61,0,0-.04-.03-.04-.03.16.96.84.89,1.54.78l-.03-.02c.46,1.59,1.66,1.73,3.03,1.52l-.03-.02c.15.96.86.83,1.53.77l-.03-.02c.16.94.84.87,1.53.77l-.02-.02c.47,1.88,2.01,2.55,3.57,3.2l4.03,2.05c.09.16.18.32.27.48.11-.15.22-.3.32-.45.26.43.52.85.77,1.28.09.48.08,1.05.83.95l-.05-.04c.57,1.34,1.29,2.49,3.02,2.3l-.03-.03c1.12,3.23,3.4,5.53,6.04,7.53l-.04-.04c.03.48.23.81.77.79l-.03-.03c0,.51.23.8.78.79,0,0-.02-.03-.02-.03.3,3.06,2.08,5.14,4.52,6.78l-.02-.03c-.09.68-.19,1.38.77,1.53l-.02-.03c-.16.9-.23,1.78.78,2.28l-.03-.04c.15.59.21,1.22.46,1.77,6.86,14.76,8.66,30.07,5.62,46.08-1.31,6.9-4.11,13.24-6.35,19.8-.19.26-.38.51-.56.77-1.2,1.51-2.36,3.04-2.17,5.14l.02-.02c-1.95.22-2.11,1.72-2.3,3.2-1.7,1.74-2.11,4.45-4.32,5.81-1.96.93-3.58,2.17-3.9,4.51l.03-.03c-.55-.03-.81.23-.78.78l.03-.02c-2.16.33-3.51,1.68-4.44,3.55-.82.57-1.65,1.14-2.47,1.71-.75.24-1.57.42-1.35,1.52,0,0,.01-.02.01-.02-1.83-.19-3.05.63-3.77,2.28l.03-.03c-.53-.02-.83.2-.78.77l.04-.02c-1.36-.19-2.53,0-3.04,1.52l.03-.02c-1.36-.2-2.51.03-3.03,1.52l.03-.02c-.68-.08-1.38-.2-1.53.77l.03-.03c-1.52-.13-3.04-.26-3.79,1.52l.06-.03c-1.94-.65-3.69.9-5.61.58-.03-1.43,2.15-1.4,1.76-2.95,0,0-.02.07-.02.07.54.02.84-.2.78-.78l-.09.02ZM579.95,140.72c-.25-.24-.5-.48-.76-.72-.34-.85-.53-1.87-1.88-1.64-.31,1.31.76,1.54,1.52,2l.76.75c.25.24.5.49.76.73.24.26.49.52.73.77.67,1.5,1.35,1.56,2.03,0,1.95-2.61,3.16-5.49,2.88-8.93-1.1,2.85-2.21,5.69-3.31,8.54-.41,0-.82,0-1.24,0l-.78-.7c-.24-.27-.48-.54-.72-.8ZM572.86,132.82c.25.25.5.51.75.76.13.39.11,1.17.69.82.47-.28-.02-.82-.42-1.11-.23-.26-.46-.53-.69-.79-.21-.29-.43-.58-.64-.87-.27-.48-.54-.96-.81-1.44-.17-.16-.46-.49-.49-.47-.46.33-.16.59.12.84.27.49.54.97.81,1.46.23.27.47.53.7.79ZM568.7,125.09c-.08,1.88.38,2.92,1.88,3.83,0-1.59-.52-2.57-1.88-3.83Z"/>
      <path class="cls-2" d="M596.94,170.13c.82-.57,1.65-1.14,2.47-1.71,1.55-.16,2.4-1.49,3.63-2.17.54,1.92.89,3.86.8,5.89-.1,2.25-.08,4.81,2.15,5.95,2.1,1.08,4.17-.43,5.88-1.61,8.95-6.18,15.52-14.21,19.78-24.34,4.23-10.06,5.75-20.63,7.45-31.24.43-2.7-1.39-4.67-1.58-7.16-1.13-15.22-5.98-28.85-17.61-39.35-1.7-1.53-2.29-4.25-4.99-4.69-.21-.26-.43-.52-.64-.78-.21-.26-.41-.52-.62-.78-.53-.52-1.05-1.03-1.58-1.55,0,0,.02.03.02.03-.05-.46-.24-.79-.78-.79,0,0,.03.03.03.03-.01-.5.08-1.11-.77-.79,0,0,.04.04.04.04-1.11-3.23-3.66-5.32-6.04-7.53,0,0,.03.03.03.03-.53-.72-1.05-1.43-1.58-2.15,3.74-1.46,4.64,2.28,6.91,3.59,9.11,5.24,15.6,12.84,21.05,21.62,6.21,10.01,9.9,20.94,10.88,32.5.94,10.98.37,21.99-3.47,32.67-4.15,11.54-9.09,22.45-18.75,30.55-1.73,1.45-2.57,3.33-2.35,5.63-8.48,1.37-17.01.71-25.53.69-1.57-1.11-2.05-2.61-.76-4.05,1.3-1.46,1.56-3.25,2.26-4.91.54-.96,2.08-.83,2.32-2.12v.02c1.04.03,1.23-.71,1.33-1.52Z"/>
      <path class="cls-12" d="M568.46,37.84c2.71,2.29,6.28,2.1,9.4,3.19,2.3.8,4.63,1.43,6.5,3.09-3.23.29-5.74-1.86-8.7-2.61-5.09-1.28-10.22-2.25-15.35-3.24,2.64-1.57,5.39-1.08,8.14-.43Z"/>
      <path class="cls-2" d="M585.06,169.35c-.42-2.33-2.16-3.64-4.02-4.58-10.8-5.43-17.55-14.54-23.06-24.86-.89-1.66-.6-3.38-.65-5.1,1.81,1.72,2.98,4.05,5.2,5.36,0,0-.02-.02-.02-.02.34.59.62,1.29,1.53.79,0,0-.05-.04-.05-.04-.64,1.1.81,1.31.89,2.1-.11,1.39-.15,2.72,1.01,3.8,4.62,4.28,8.87,9.02,14.56,11.97,1.57.81,2.51,3.34,4.15,2.88,3.62-1.02,3.98,1.14,4.45,3.57-.92.65-2.04,1.16-1.81,2.6,0,0,.02-.02.02-.02-.5.02-.76.28-.77.78,0,0,.03-.03.03-.03-.5.02-.75.29-.77.78,0,0,.03-.03.03-.03-.24,0-.49,0-.73.04Z"/>
      <path class="cls-12" d="M562.54,140.17c-2.22-1.31-3.4-3.64-5.2-5.36-.28-.72-.55-1.44-.83-2.15,2.88,1.81,4.66,4.5,6.03,7.51Z"/>
      <path class="cls-12" d="M553.51,126.64c1.78,1.62,2.81,3.62,3.02,6.03-1.56-1.73-3.08-3.48-3.02-6.03Z"/>
      <path class="cls-12" d="M552.01,122.89c1.75.76,1.69,2.25,1.52,3.78-.99-1.07-1.57-2.3-1.52-3.78Z"/>
      <path class="cls-12" d="M584.28,170.8c.05.56-.23.81-.77.78-.01-.53.27-.77.77-.78Z"/>
      <path class="cls-12" d="M583.53,171.55c.03.55-.23.8-.78.78,0-.51.24-.79.78-.78Z"/>
      <path class="cls-12" d="M582.78,172.3c.04.56-.25.79-.78.77-.04-.56.26-.78.78-.77Z"/>
      <path class="cls-12" d="M582.04,173.04c0,.54-.3.76-.81.75-.31-.87.33-.73.81-.75Z"/>
      <path class="cls-12" d="M585.03,170.05c.05.57-.21.82-.78.77,0-.52.26-.78.78-.77Z"/>
      <path class="cls-12" d="M585.06,169.35c.24-.03.48-.04.73-.04.03.55-.23.81-.79.77-.04-.25-.02-.49.06-.73Z"/>
      <path class="cls-1" d="M451.99,276.63c0-10.53.09-19.27-.05-28-.05-3.25.33-4.95,3.91-4.93,3.42.02,4.12,1.34,4.07,4.81-.16,12.72,0,25.45-.16,38.17-.02,1.94,1.56,5.06-1.6,5.73-2.59.55-5.02.43-7.07-2.59-6.13-9-12.62-17.68-18.98-26.48-.46-.64-.98-1.25-2.4-3.05,0,10.14-.09,18.81.04,27.48.05,3.24-.35,5.01-3.92,4.96-3.44-.05-4.66-1.07-4.59-5.06.2-12.03-.06-24.06.18-36.09.05-2.54-2.01-6.46,1.95-7.58,3.15-.89,5.66.25,7.89,3.59,6.3,9.41,13.09,18.42,20.72,29.04Z"/>
      <path class="cls-1" d="M637.56,267.87c0-6.69.09-13.39-.05-20.08-.06-2.92.7-4.1,3.46-3.99,6.38.24,12.79-.24,19.14.3,11.27.97,19.85,11.78,19.68,24.12-.18,12.98-8.26,23.17-19.66,24.12-6.35.53-12.77.04-19.15.28-2.76.1-3.53-1.06-3.47-3.98.14-6.92.05-13.85.04-20.77ZM645.41,268.3c0,1.15,0,2.31,0,3.46-.01,14.46,1.85,16.06,14.76,12.7,9.42-2.45,14.23-14.87,9.55-24.66-3.14-6.56-13.95-11.41-21.89-8.29-5.13,2.02-1.41,8.38-2.37,12.64-.29,1.3-.05,2.76-.04,4.14Z"/>
      <path class="cls-6" d="M43,268.15c.04-14.22,10.22-25.49,22.89-25.34,13.41.16,23.42,11.1,23.39,25.57-.03,14.39-10.36,25.43-23.6,25.22-13.06-.2-22.7-11.03-22.67-25.45ZM65.67,250.76c-8.61.17-14.58,7.93-14.36,18.66.2,9.52,6.6,16.39,15.16,16.25,8.17-.13,14.53-7.7,14.42-17.14-.12-10.63-6.38-17.94-15.22-17.76Z"/>
      <path class="cls-1" d="M596.13,268.35c0-6.71.13-13.43-.05-20.13-.09-3.29.86-4.48,3.85-4.42,8.26.17,16.52.11,24.78.03,2.26-.02,3.28.63,3.31,3.48.02,3.01-.82,4.13-3.51,4.05-5.37-.15-10.75.2-16.1-.13-5.62-.35-3.57,4.15-3.79,7.05-.23,3.11-.82,6.6,4.01,6.08,4.3-.46,8.67-.07,13-.14,2.26-.04,3.85.14,3.94,3.59.11,3.82-1.62,4.04-4.15,3.94-3.3-.12-6.61-.05-9.91-.04-6.25,0-9.36,5.43-6.9,11.8.83,2.14,2.37,1.48,3.67,1.5,5.58.1,11.15.16,16.73.02,2.8-.07,4.09.76,4.08,4.25-.01,3.75-2.09,3.24-4.1,3.25-8.26.01-16.53-.15-24.78.09-3.39.1-4.22-1.36-4.11-4.85.2-6.47.06-12.96.06-19.44Z"/>
      <path class="cls-1" d="M335.77,268.32c0-6.71.13-13.43-.05-20.13-.09-3.3.87-4.47,3.87-4.4,8.05.18,16.11.08,24.17.05,2.16,0,3.91-.13,3.95,3.47.05,3.76-1.59,4.12-4.17,4.06-4.96-.1-9.95.35-14.86-.16-5.75-.59-4.21,3.71-4.48,7.11-.32,3.99.16,6.62,4.74,6.08,3.88-.46,7.84-.1,11.77-.12,2.25,0,4.44-.58,4.54,3.55.11,4.58-2.38,3.91-4.81,3.9-3.1,0-6.2-.02-9.3-.02-6.27,0-9.31,5.33-6.89,11.81.82,2.19,2.36,1.5,3.65,1.52,5.58.09,11.16.15,16.73,0,2.77-.07,4.16.68,4.12,4.21-.04,3.66-2.04,3.29-4.13,3.29-8.26,0-16.53-.15-24.79.08-3.38.1-4.21-1.35-4.09-4.87.21-6.47.06-12.96.06-19.44h-.02Z"/>
      <path class="cls-1" d="M176.96,292.81c-5.11-.27-11.77,1.55-14.89-1.38-3.32-3.11-.91-10.83-1.02-16.53-.18-8.77.06-17.55-.12-26.32-.07-3.47.73-4.92,4.11-4.82,8.03.25,16.07.14,24.11.04,2.42-.03,3.76.41,3.73,3.72-.03,3.24-1.29,3.86-3.75,3.81-5.36-.1-10.73.21-16.07-.1-5.14-.3-3.63,3.75-3.59,6.54.05,2.71-1.71,6.9,3.51,6.54,4.52-.31,9.07.01,13.6-.09,2.38-.06,3.81.36,3.81,3.7,0,3.15-1.06,3.96-3.62,3.83-3.29-.17-6.59-.04-9.89-.03-7.5,0-9.18,2.71-7.54,11.13.58,2.96,2.26,2.16,3.69,2.19,5.56.11,11.13.13,16.69.02,2.63-.05,4.23.39,4.22,4.07-.02,3.6-1.85,3.44-3.99,3.43-4.33-.03-8.66,0-12.98,0v.26Z"/>
      <path class="cls-1" d="M773.25,285.1c6.75,0,13.34.02,19.93-.01,2.36-.01,4.42-.21,4.48,3.75.07,4.06-2.04,3.73-4.37,3.72-9.08-.03-18.16.08-27.24-.09-1.78-.03-4.43,1.65-5.27-1.55-.66-2.49.14-4.84,1.72-7.01,6-8.22,11.88-16.56,17.73-24.93,1.47-2.1,3.42-3.93,4.1-7.68-6.59,0-12.89-.02-19.19,0-2.33.01-4.38.28-4.45-3.71-.07-4.02,1.94-3.77,4.31-3.76,8.67.04,17.34-.08,26,.09,1.81.04,4.45-1.55,5.36,1.48.73,2.44-.02,4.8-1.63,7-6.65,9.12-13.15,18.39-19.65,27.64-.84,1.2-2.23,2.16-1.83,5.04Z"/>
      <path class="cls-6" d="M21.35,293.69c-4.91-.35-9.75-1.21-14.29-3.71-2.55-1.4-3-3.05-1.76-6.06,1.31-3.2,2.59-2.48,4.72-1.26,4.29,2.46,8.92,3.69,13.77,2.91,2.94-.47,6-1.63,6.34-5.44.31-3.53-2.27-5.11-5-6.03-3.94-1.32-7.89-2.58-11.81-3.96-5.02-1.76-8.16-5.53-8.5-11.46-.35-6.19,2.54-10.67,7.33-13.29,7.38-4.04,14.77-2.7,22.1.59,3.12,1.4,1.51,3.54,1.05,5.58-.59,2.59-1.74,3.22-3.98,1.89-4.12-2.45-8.57-3.41-13.16-2.22-2.46.64-4.72,2.12-4.99,5.4-.28,3.39,1.64,4.94,4.28,5.77,3.16.99,6.31,2.03,9.45,3.09,8.58,2.91,11.71,6.73,11.43,13.9-.28,7.23-5.16,12.37-13.24,13.91-1.21.23-2.46.27-3.75.4Z"/>
      <path class="cls-1" d="M528.45,292.6c6.22-15.83,12.22-30.9,18.06-46.04,1.23-3.18,3.43-2.6,5.63-2.72,2.17-.11,3.8.17,4.86,2.91,5.78,14.95,11.74,29.8,17.76,45-5.42,1.95-9.36,1.15-10.75-5.5-.89-4.23-3.24-5.25-6.76-4.86-2.45.27-4.95.26-7.4,0-5.76-.62-10.32.12-11.9,7.95-1.17,5.82-5.67,2.37-9.49,3.25ZM551.74,253.5c-1.46,3.71-2.53,6.4-3.57,9.11-4.8,12.43-4.8,12.33,7.22,11.59,3.11-.19,4.1-.9,2.62-4.39-2.1-4.94-3.88-10.05-6.27-16.31Z"/>
      <path class="cls-1" d="M277.26,291.86c-6.44,2.39-9.73-.23-11.11-6.43-.72-3.23-2.44-4.34-5.39-4.05-3.07.29-6.21.4-9.25-.01-5.58-.77-9.36.64-10.85,7.57-1.3,6.04-5.7,3.08-9.63,3.4,6.17-15.74,12.12-30.84,17.99-45.98,1.23-3.16,3.59-2.32,5.75-2.53,2.28-.22,3.73.47,4.75,3.09,5.78,14.94,11.74,29.79,17.74,44.94ZM254.19,253.52c-1.46,3.73-2.59,6.4-3.55,9.14-1.26,3.57-4.88,8.25-3.16,10.46,2.23,2.86,7.24.67,11.04,1,2.7.23,3.22-1.15,2.21-3.74-2.05-5.23-4.07-10.48-6.54-16.86Z"/>
      <path class="cls-1" d="M863.65,291.93c-5.87,1.87-9.79.51-11.02-6.2-.68-3.68-2.72-4.62-5.82-4.34-2.87.25-5.81.43-8.64-.01-5.89-.93-9.77.83-11.27,7.92-1.29,6.12-5.86,1.78-10.16,4.66,6.84-17.35,12.73-32.68,18.96-47.85,1.68-4.09,8.54-3.2,10.3,1.19,5.88,14.66,11.64,29.39,17.66,44.62ZM833.22,274.1c4.21,0,8.05-.03,11.89.01,2.2.03,3.07-.92,2.14-3.33-2.1-5.42-4.22-10.84-6.89-17.66-2.37,7.95-5.78,13.7-7.14,20.97Z"/>
      <path class="cls-6" d="M487.98,269.43c.13-11.52,4.23-19.3,12.29-23.67,8.32-4.51,16.81-3.9,24.63,2.03,1.27.96,4.17,1.95,1.9,4.5-1.56,1.75-2.65,5.12-6.42,2.33-8.42-6.21-16.36-4.73-21.21,3.05-4.21,6.76-3.61,17.48,1.28,23.08,5.14,5.89,13.14,6.92,19.67,1.49,3.5-2.92,4.63-.37,6.36,1.69,2.5,2.97-.31,4.16-1.79,5.16-8.18,5.52-16.67,6.25-25.26,1.16-7.91-4.68-11.22-12.41-11.46-20.82Z"/>
      <path class="cls-6" d="M373.98,271.1c-.11-12.25,3.59-19.98,11.24-24.7,8.17-5.05,16.65-4.69,24.68.69,1.48.99,5.2,1.88,2.81,5.31-1.56,2.24-3.22,4.95-6.95,1.76-5.99-5.12-12.92-4.41-18.24.5-4.89,4.51-6.65,13.83-3.95,20.94,2.65,6.99,8.38,10.72,15.36,10.06,2.55-.24,5.06-1,6.77-2.99,3.13-3.65,4.96-1.2,6.82,1.36,2.61,3.6-.97,4.51-2.44,5.47-8.05,5.2-16.38,5.75-24.72.73-7.6-4.58-11.04-12.01-11.36-19.11Z"/>
      <path class="cls-6" d="M103.43,268.22c-.07,6.75,2.15,12.22,7.63,15.42,5.33,3.11,11,3.43,15.67-1.06,3.45-3.32,5.12-1.15,6.83,1.46,2.65,4.04-1.38,4.72-3.01,5.73-9.09,5.7-18.23,5.19-26.82-1.32-6.88-5.22-10.24-16.45-8.24-25.94,2.23-10.57,9.09-17.52,19.56-19.28,5.88-.99,11.52.4,16.43,4.25,1.33,1.04,4.78,1.87,2.26,4.9-1.5,1.8-3.03,5.6-6.39,2.07-2.3-2.42-5.26-3.54-8.47-3.69-8.9-.41-15.22,6.72-15.47,17.45Z"/>
      <path class="cls-1" d="M312.9,243.86c5.15,0,10.3.08,15.45-.04,2.43-.05,3.21,1.01,3.15,3.69-.06,2.53-.65,4.01-3.14,3.79-.2-.02-.41,0-.62,0q-10.81.96-10.82,13.03c0,7.85-.14,15.7.04,23.54.08,3.4-.55,4.86-3.99,4.82-3.47-.04-4.64-1.12-4.55-5.09.23-9.92-.13-19.85.17-29.76.15-4.94-.85-6.92-5.71-6.77-2.63.08-7.88,3.56-8.06-3.22-.2-7.49,5.35-3.14,8.22-3.82,3.15-.75,6.56-.17,9.85-.17Z"/>
      <path class="cls-1" d="M215.03,243.86c4.95,0,9.9.08,14.85-.04,2.44-.06,3.76.46,3.72,3.77-.05,3.31-1.48,3.6-3.85,3.77-10.78.76-10.78.83-10.78,13.02,0,7.16.1,14.33-.03,21.49-.05,3,1.54,6.83-3.94,6.9-5.72.07-4.38-3.88-4.41-7.26-.07-8.55-.47-17.13.1-25.63.47-6.96-1.36-9.87-7.68-8.58-1.2.24-2.47-.03-3.71.02-2.9.11-2.48-2.19-2.59-4.25-.13-2.38.75-3.25,2.84-3.22,5.15.09,10.31.03,15.46.03Z"/>
      <path class="cls-1" d="M707.69,268.22c0-5.76-.06-11.53.02-17.29.04-3.38-1.36-7.32,4.38-7.27,5.48.05,3.96,3.83,3.99,6.87.1,9.68.27,19.37-.07,29.04-.16,4.69,1.29,5.9,5.2,5.6,4.5-.35,9.05.01,13.57-.12,2.44-.07,3.74.47,3.73,3.73,0,3.08-.9,3.88-3.53,3.83-7.82-.17-15.64-.18-23.45,0-2.95.07-3.98-1.01-3.89-4.34.18-6.68.05-13.37.05-20.05Z"/>
      <path class="cls-6" d="M687.82,268.21c0-6.47.17-12.94-.08-19.39-.15-3.92.96-5.15,4.51-5.12,3.31.03,4.15,1.18,4.1,4.75-.17,13.16-.16,26.32-.01,39.48.04,3.45-.66,4.8-4.04,4.78-3.49-.02-4.7-1.17-4.55-5.11.25-6.45.07-12.93.06-19.39Z"/>
      <path class="cls-6" d="M149.57,268.76c0,6.46-.19,12.94.08,19.39.16,3.8-1.11,4.61-4.23,4.52-3-.09-4.41-.71-4.35-4.6.19-13.39.17-26.78-.03-40.17-.07-4.32,2.12-3.97,4.72-4.15,2.93-.2,3.98.81,3.87,4.22-.21,6.92-.06,13.85-.06,20.78Z"/>
      <path class="cls-6" d="M470.88,268.11c0-6.69.2-13.4-.07-20.08-.17-4.22,1.87-4.2,4.6-4.26,2.73-.06,4.05.42,3.99,4.08-.2,13.62-.19,27.24,0,40.86.05,3.8-1.61,3.99-4.15,3.91-2.36-.08-4.51.24-4.4-3.74.19-6.92.05-13.85.05-20.77h-.02Z"/>
      <path class="cls-6" d="M752.07,268.79c0,6.46-.21,12.94.07,19.38.17,3.87-1.25,4.49-4.28,4.51-3.14.02-4.34-.94-4.3-4.65.16-13.38.2-26.78,0-40.16-.07-4.39,2.18-3.9,4.73-4.1,2.95-.22,3.95.87,3.85,4.24-.21,6.92-.06,13.85-.07,20.77Z"/>
      <path class="cls-6" d="M812.81,268.23c0,6.7-.14,13.4.06,20.08.1,3.26-.72,4.62-3.77,4.3-2.44-.25-4.88.51-4.82-3.98.2-13.62.21-27.24.02-40.86-.06-4.54,2.43-3.71,4.84-3.99,3.12-.36,3.81,1.19,3.72,4.36-.17,6.69-.05,13.39-.05,20.08Z"/>
      <path class="cls-6" d="M258.64,239.3c-7.69,2.45-10.66-4.76-15.67-8.13q7.88-2.43,15.67,8.13Z"/>
      <path class="cls-12" d="M576.79,176.8c.05.58-.24.8-.78.78,0-.52.33-.71.78-.78Z"/>
      <path class="cls-11" d="M587.11,128.71c-.25-.02-.62.06-.72-.07-2.48-3.1-5.62-2.55-9.07-2.24-2.88.26-4.35-2.8-6.24-4.66-1.73-1.7-2.04-4.48-4.4-5.68-1.85-6.91-1.08-13.78.1-20.69,1.78-10.41,5.6-20.31,7.54-30.69.58-3.07-.54-6.49,1.74-9.23,0,0-.03-.02-.03-.02.46.94,1.04,1.72,2.27,1.52,0,0-.03-.02-.03-.02-.12.64.26.78.78.77,0,0-.03-.03-.03-.03,0,.52.31.73.78.77,0,0-.02-.02-.02-.02.48.92.99,1.79,2.27,1.53,0,0-.03-.03-.03-.03-.2,1.22.63,1.41,1.53,1.52,0,0-.02-.02-.02-.02.02.5.29.74.77.77,0,0-.02-.02-.02-.02.03.49.29.74.77.77,0,0-.02-.02-.02-.02.19.83.69,1.34,1.52,1.52,0,0-.02-.02-.02-.02.79,2.14,3.17,2.98,4.11,5-5.76.61-10.63,4.37-10.6,9.92.04,7.55-2.17,15.39,1.69,22.69.43.81.31,1.66.11,2.54-.59,2.66.48,4.06,3.26,4.06.07.24.07.57.23.7.28.23.46.07.43-.31-.07-.84.27-1.77-.58-2.43.78-3.03.34-6.31,1.88-9.42q.48,4.64,2.38,5.44c.59,8.82-1.03,17.44-2.31,26.1ZM583.89,115.11c-.19.34-.39.61-.52.91-.2.49.11.69.49.49.22-.12.32-.56.38-.87.02-.13-.19-.3-.35-.53ZM584.66,113.28c.12-.22.33-.42.32-.61-.01-.37.18-1.17-.35-.98-.47.17-.38,1.03.02,1.59Z"/>
      <path class="cls-3" d="M614.92,69.71c2.69.44,3.29,3.16,4.99,4.69,11.63,10.5,16.49,24.12,17.61,39.35.18,2.48,2.01,4.45,1.58,7.16-1.7,10.6-3.22,21.18-7.45,31.24-4.26,10.14-10.83,18.16-19.78,24.34-1.71,1.18-3.77,2.69-5.88,1.61-2.23-1.15-2.24-3.7-2.15-5.95.09-2.03-.26-3.96-.8-5.89.27-.46.54-.92.81-1.38,0,0-.03.02-.03.02.26-.26.52-.52.78-.78,0,0-.03.03-.03.03,1.63-1.22,3.14-2.54,3.9-4.51,2.22-1.36,2.63-4.06,4.32-5.81,1.32-.67,1.91-1.87,2.3-3.2,0,0-.02.02-.02.02,1.26-1.49,2.77-2.87,2.17-5.14.19-.26.38-.51.57-.77,2.13-.81,1.9-3.25,3.2-4.63,1.75-.09,2.68.61,2.08,2.44-.3.92-.95,1.73-1.3,2.64-.33.87-1.05,1.89.09,2.68,1.04.72,2.01-.03,2.69-.62,1.78-1.55,3.4-3.28,4.27-5.53,4.16-10.77,4.59-21.81,3.18-33.2-.89-7.17-5.71-12.91-6.27-20.11-.11-1.45-1.54-3.06-3.31-3.71l.03.03-.5-.83c-1.23-2.31-.57-5.7-3.9-6.81,0,0,.03.04.03.04.47-1.01.05-1.72-.78-2.28,0,0,.02.03.02.03.03-.66.02-1.29-.77-1.53,0,0,.02.03.02.03.15-1.55-1.67-2.19-1.68-3.67Z"/>
      <path class="cls-3" d="M585.08,108.63c-2.78,0-3.85-1.4-3.25-4.06.2-.89.32-1.74-.11-2.54-3.86-7.3-1.65-15.14-1.69-22.69-.03-5.55,4.84-9.31,10.6-9.92.38.08.77.16,1.15.23,2.22,3.27,4.44,6.53,6.66,9.8-.62.26-1.22,1.85-1.88.26-1.44-3.43-3.85-2.97-6.39-1.72-2.79,1.37-4.74,3.22-2.97,6.71.6,1.19.6,2.65,1.57,3.7-.14,1.6.46,3.05.91,4.52.08,1.5,1.03,2.87.64,4.43-1.65,1.52-.29,3.56-.91,5.26q-1.9-.8-2.38-5.44c-1.54,3.11-1.1,6.39-1.88,9.42-.03.68-.05,1.36-.08,2.04Z"/>
      <path class="cls-2" d="M588.77,88.4c-.97-1.04-.97-2.51-1.57-3.7-1.77-3.49.18-5.34,2.97-6.71,2.54-1.25,4.95-1.71,6.39,1.72.67,1.59,1.27,0,1.88-.26.18.49.36.97.55,1.46.45,1.1.66,2.34,1.79,3.03,0,0-.03-.04-.03-.04.02.63-.08,1.32.77,1.54,0,0-.02-.03-.02-.03.72,2.25,1.43,4.49,2.15,6.74-2.18-1.13-3.02-3.44-4.09-5.32-1.78-3.12-4.55-3.67-7.45-3.52-2.95.15-2.72,3.05-3.34,5.1Z"/>
      <path class="cls-12" d="M589.42,102.61c.62-1.7-.74-3.74.91-5.26.18.25.36.5.54.75.46,1.51-.27,3.24.84,4.64,0,0-.04-.01-.04-.01.14,2.74.04,5.52,1,8.16-.08,7.42-.17,14.85-.25,22.27-1.46,4.51-1.23,9.46-3.53,13.76l-.03-.02c.1-5.72,1.94-11.17,2.51-16.85.8-7.99,0-15.81-.76-23.72,0,8.8-1,17.44-3.39,26.11-1.32-1.46.05-2.58-.1-3.74,1.28-8.65,2.9-17.28,2.31-26.1Z"/>
      <path class="cls-12" d="M618.09,77.09c3.32,1.11,2.66,4.5,3.9,6.81-.09.43.07.72.5.83,0,0-.03-.03-.03-.03.19.84.31,1.71.58,2.52,3.89,11.81,4.36,23.86,2.57,36.06-.85,5.79-2.98,11.23-4.59,16.82-1.29,1.39-1.07,3.82-3.2,4.63,2.24-6.56,5.04-12.9,6.35-19.8,3.05-16.01,1.24-31.33-5.62-46.08-.25-.54-.31-1.18-.46-1.77Z"/>
      <path class="cls-12" d="M576.06,55.44c-2.28,2.74-1.16,6.16-1.74,9.23-1.95,10.38-5.76,20.28-7.54,30.69-1.18,6.9-1.94,13.78-.1,20.69.17,1.49.34,2.98.51,4.48-.13.11-.26.21-.39.31-1.37-1.91-1.63-4.27-1.78-6.39-.38-5.42-.64-10.91-.17-16.3.58-6.68,3.27-12.94,4.93-19.41,1.92-7.45,4.37-14.8,4.08-22.65-.03-.71-.23-1.69.69-1.91.77-.18,1.37.41,1.52,1.26Z"/>
      <path class="cls-12" d="M604.45,93c3.16,3.46,3.13,8.05,3.68,12.17,1.88,14.08-.05,27.77-5.74,40.87-.54,1.24-.78,2.67-2.41,3.02,0,0,0,0,0,0,1.57-4.46,4.02-8.61,4.68-13.39,1.79-3.59,2.21-7.61,2.57-11.42.55-5.93,1.21-12-.38-17.94-.21-.74.41-1.75-.71-2.19-.07-.49-.13-.98-.2-1.47.31-1.59-1.18-2.91-.7-4.52.61-1.84-.88-3.36-.8-5.12h0Z"/>
      <path class="cls-12" d="M582.68,142.22c1.1-2.85,2.21-5.69,3.31-8.54.28,3.44-.93,6.32-2.88,8.93-.15-.12-.29-.25-.43-.39Z"/>
      <path class="cls-12" d="M604.58,57.6c2.38,2.21,4.93,4.3,6.04,7.53-2.65-2-4.92-4.3-6.04-7.53Z"/>
      <path class="cls-12" d="M574.68,148.22c2.65.96,5.39,1.71,7.57,3.64-.11.15-.23.3-.35.45-2.58-1.16-5.15-2.31-7.73-3.47.17-.21.34-.41.51-.62Z"/>
      <path class="cls-12" d="M591.78,69.65c-.38-.08-.77-.15-1.15-.23-.94-2.02-3.31-2.86-4.11-5,2.65.84,4.14,2.85,5.25,5.24Z"/>
      <path class="cls-12" d="M614.92,69.71c0,1.48,1.83,2.12,1.68,3.67-2.43-1.64-4.22-3.72-4.52-6.78.53.52,1.05,1.03,1.58,1.55.21.26.41.52.62.78.21.26.43.52.64.78Z"/>
      <path class="cls-12" d="M564.89,143c-.08-.79-1.53-1.01-.89-2.1,2.12,1.09,4.32,2.08,5.27,4.53,0,0,0,0,0,0l-4.37-2.43Z"/>
      <path class="cls-12" d="M603.65,92.14c-.72-2.25-1.43-4.49-2.15-6.74,2.55,1.92,2.95,4.68,2.94,7.59,0,0,0,0,0,0-.21-.02-.42-.06-.62-.12-.05-.25-.11-.49-.16-.74Z"/>
      <path class="cls-12" d="M617.25,145.51c.6,2.27-.91,3.66-2.17,5.14-.19-2.1.97-3.63,2.17-5.14Z"/>
      <path class="cls-12" d="M591.84,47.85c1.86.32,2.96,1.49,3.57,3.2-1.57-.65-3.11-1.32-3.57-3.2Z"/>
      <path class="cls-12" d="M603.85,164.88c-.27.46-.54.92-.81,1.38-1.23.68-2.08,2.02-3.63,2.17.94-1.86,2.28-3.22,4.44-3.55Z"/>
      <path class="cls-12" d="M587.26,167.83c-.23-1.45.89-1.95,1.81-2.6.25-.28.5-.56.75-.83.21.2.42.39.62.59-.59,1.48-1.32,2.8-3.18,2.85Z"/>
      <path class="cls-12" d="M608.48,159.64c-.76,1.97-2.26,3.3-3.9,4.51.32-2.35,1.94-3.58,3.9-4.51Z"/>
      <path class="cls-12" d="M586.39,151.96c.5-1.84.39-3.98,2.47-5.06,0,0,.03.02.03.02-.22,1.98-1,3.72-2.19,5.3-.1-.08-.2-.17-.3-.26Z"/>
      <path class="cls-12" d="M593.26,160.31c.38,2.36-1.54,3.32-2.82,4.66-.21-.2-.42-.39-.62-.59,1.14-1.37,2.28-2.73,3.42-4.1l.02.02Z"/>
      <path class="cls-12" d="M582.25,151.87c1.39-.12,2.74,1.23,4.14.1.1.09.2.17.3.26-.08.44-.15.89-.23,1.33-1.72.32-3.19-.29-4.57-1.24.12-.15.24-.3.35-.45Z"/>
      <path class="cls-12" d="M568.7,125.09c1.36,1.27,1.87,2.24,1.88,3.83-1.5-.92-1.96-1.95-1.88-3.83Z"/>
      <path class="cls-12" d="M596.25,155.81c.27,1.8-.4,3.13-2.03,3.96-.1-.09-.2-.19-.3-.28.43-1.44,1.35-2.58,2.3-3.69l.02.02Z"/>
      <path class="cls-12" d="M593.29,173.76c-.48.05-.97.1-1.45.15.72-1.65,1.94-2.47,3.77-2.28-.24,1.29-1.78,1.16-2.32,2.12Z"/>
      <path class="cls-12" d="M598.49,152.04c.13,1.78-.08,3.35-2.24,3.77,0,0-.02-.02-.02-.02.3-.72.6-1.45.89-2.17.69-.26.63-.91.77-1.46.2-.04.39-.08.58-.14v.02Z"/>
      <path class="cls-12" d="M567.18,120.53c.71.97,1.41,1.95,1.22,3.5-1.6-.66-1.24-2.12-1.61-3.19.13-.1.26-.2.39-.31Z"/>
      <path class="cls-12" d="M615.1,150.63c-.4,1.33-.98,2.53-2.3,3.2.19-1.48.35-2.98,2.3-3.2Z"/>
      <path class="cls-12" d="M583.61,178.38c-1.08.96-2.34,1.47-3.79,1.52.75-1.79,2.27-1.65,3.79-1.52Z"/>
      <path class="cls-12" d="M578.82,140.35c-.75-.46-1.82-.68-1.51-2,1.35-.23,1.54.8,1.88,1.64-.12.12-.25.24-.37.36Z"/>
      <path class="cls-12" d="M569.26,145.42c1.89-.44,2.94.75,3.92,2.05-.08.1-.16.2-.25.29-1.49-.36-2.54-1.41-3.68-2.34h0Z"/>
      <path class="cls-12" d="M591.12,174.64c-.14,2.24-1.9,1.27-3.04,1.52.51-1.52,1.67-1.72,3.04-1.52Z"/>
      <path class="cls-12" d="M601.59,55.33c.48.05.96.1,1.45.15.53.72,1.05,1.43,1.58,2.15-1.74.19-2.45-.96-3.02-2.3Z"/>
      <path class="cls-12" d="M588.11,176.14c-.67,1.19-1.76,1.52-3.03,1.52.52-1.48,1.67-1.71,3.03-1.52Z"/>
      <path class="cls-12" d="M585.83,44.85c1.28-.02,2.26.53,3.03,1.52-1.37.21-2.56.06-3.03-1.52Z"/>
      <path class="cls-12" d="M600.78,83.94c-1.14-.69-1.34-1.93-1.79-3.03,1.67.38,1.97,1.56,1.79,3.03Z"/>
      <path class="cls-12" d="M596.94,170.13c-.11.81-.29,1.55-1.35,1.52-.22-1.1.59-1.28,1.35-1.52Z"/>
      <path class="cls-12" d="M582.05,59.94c-1.28.27-1.79-.6-2.27-1.53,1.22-.19,1.88.47,2.27,1.53Z"/>
      <path class="cls-12" d="M583.11,142.61c-.68,1.56-1.36,1.49-2.03,0,.12-.13.25-.25.37-.38.41,0,.82,0,1.23,0,.13.14.28.27.43.39Z"/>
      <path class="cls-12" d="M578.3,56.94c-1.23.2-1.81-.58-2.27-1.52,1.18-.13,1.9.43,2.27,1.52Z"/>
      <path class="cls-12" d="M586.55,64.43c-.83-.18-1.33-.69-1.52-1.52,1.09-.08,1.58.44,1.52,1.52Z"/>
      <path class="cls-12" d="M599.98,149.05c.28.91.23,1.76-.53,2.44-.21-.18-.41-.36-.62-.54.38-.64.77-1.27,1.15-1.91h0Z"/>
      <path class="cls-12" d="M583.55,61.44c-.9-.11-1.73-.3-1.53-1.52.83.18,1.43.6,1.53,1.52Z"/>
      <path class="cls-12" d="M617.33,74.86c.84.56,1.25,1.27.78,2.28-1.01-.5-.94-1.37-.78-2.28Z"/>
      <path class="cls-12" d="M590.32,47.1c.66-.03,1.33-.09,1.53.77-.69.1-1.37.17-1.53-.77Z"/>
      <path class="cls-12" d="M588.82,46.35c.64,0,1.32-.07,1.53.77-.67.06-1.38.19-1.53-.77Z"/>
      <path class="cls-12" d="M585.81,44.16c.08.23.1.47.05.71-.7.12-1.38.18-1.54-.78.49.02.99.04,1.48.06Z"/>
      <path class="cls-12" d="M585.11,177.64c-.21.85-.9.75-1.53.77.15-.97.85-.85,1.53-.77Z"/>
      <path class="cls-12" d="M564.04,140.94c-.9.5-1.19-.2-1.53-.79.76-.23,1.32-.06,1.53.79Z"/>
      <path class="cls-12" d="M573.18,147.47c.5.25.99.5,1.49.76-.17.21-.34.41-.5.62-.41-.36-.82-.72-1.23-1.08.08-.1.16-.2.25-.29Z"/>
      <path class="cls-12" d="M573.88,133.3c.4.29.89.83.42,1.11-.58.34-.56-.44-.68-.83.09-.1.18-.19.26-.28Z"/>
      <path class="cls-12" d="M571.73,130.2c.27.48.54.96.81,1.45-.13.13-.25.26-.38.38-.27-.49-.54-.97-.8-1.46.13-.12.25-.25.37-.37Z"/>
      <path class="cls-12" d="M601.53,85.43c-.85-.21-.75-.91-.77-1.54.87.21.9.83.77,1.54Z"/>
      <path class="cls-12" d="M616.58,73.36c.79.24.8.87.77,1.53-.96-.16-.86-.85-.77-1.53Z"/>
      <path class="cls-12" d="M600.81,54.42c.48.14,1.32-.04.83.95-.75.1-.75-.46-.83-.95Z"/>
      <path class="cls-12" d="M611.33,65.85c.53,0,.72.32.78.79-.54.02-.77-.27-.78-.79Z"/>
      <path class="cls-12" d="M610.59,65.08c.86-.32.76.29.77.79-.55.02-.74-.31-.77-.79Z"/>
      <path class="cls-12" d="M585.05,62.93c-.49-.03-.75-.28-.77-.77.54-.03.79.23.77.77Z"/>
      <path class="cls-12" d="M591.87,173.89c.05.57-.34.7-.78.77-.05-.57.25-.79.78-.77Z"/>
      <path class="cls-12" d="M584.3,62.18c-.48-.03-.75-.27-.77-.77.54-.02.79.23.77.77Z"/>
      <path class="cls-12" d="M599.45,151.5c-.2.39-.44.72-.96.55,0,0-.02-.02-.02-.02.12-.36.24-.71.36-1.07.21.18.41.36.62.54Z"/>
      <path class="cls-12" d="M572.54,131.65c.21.29.43.58.64.87-.11.1-.22.21-.32.31-.23-.27-.47-.53-.7-.8.13-.13.25-.26.38-.38Z"/>
      <path class="cls-2" d="M599.44,53.1c.2.01.4.02.59.04-.11.15-.22.3-.32.45-.09-.16-.18-.32-.27-.48Z"/>
      <path class="cls-12" d="M571.35,130.57c-.28-.25-.58-.51-.12-.84.04-.02.32.3.49.47-.12.12-.24.25-.37.37Z"/>
      <path class="cls-12" d="M580.34,141.84c-.25-.24-.5-.49-.75-.74.12-.13.24-.25.36-.38.24.27.48.54.72.8-.11.1-.22.21-.33.31Z"/>
      <path class="cls-12" d="M594.22,159.77c-.2.4-.45.7-.96.54,0,0-.02-.02-.02-.02.23-.27.46-.53.69-.8.1.09.2.19.3.28Z"/>
      <path class="cls-12" d="M573.18,132.51c.23.26.46.53.69.79-.09.09-.17.18-.26.28-.25-.25-.5-.51-.75-.76.11-.1.21-.21.32-.31Z"/>
      <path class="cls-12" d="M579.05,57.69c-.52,0-.9-.13-.78-.77.48.03.75.28.78.77Z"/>
      <path class="cls-12" d="M580.66,141.52c.26.23.52.47.78.7-.12.13-.24.25-.37.38-.25-.26-.49-.51-.74-.77.11-.1.21-.21.32-.31Z"/>
      <path class="cls-12" d="M579.8,58.44c-.47-.05-.78-.25-.78-.77.49.03.79.24.78.77Z"/>
      <path class="cls-12" d="M579.19,140c.25.24.5.48.76.72-.12.12-.24.25-.36.38-.25-.25-.51-.5-.76-.75.12-.12.25-.24.37-.35Z"/>
      <path class="cls-12" d="M586.51,168.58c.02-.5.27-.76.77-.78.04.55-.23.81-.77.78Z"/>
      <path class="cls-12" d="M585.76,169.33c.03-.49.28-.76.77-.78.03.54-.21.82-.77.78Z"/>
      <path class="cls-12" d="M604.6,164.12c-.26.26-.52.52-.78.78-.03-.55.23-.81.78-.78Z"/>
      <path class="cls-3" d="M614.28,68.93c-.21-.26-.41-.52-.62-.78.21.26.41.52.62.78Z"/>
      <path class="cls-3" d="M593.93,159.49c-.23.27-.46.53-.69.8-1.14,1.37-2.28,2.73-3.42,4.1-.25.28-.5.56-.75.83-.47-2.43-.83-4.59-4.45-3.57-1.64.46-2.59-2.06-4.15-2.88-5.7-2.95-9.94-7.69-14.56-11.97-1.17-1.08-1.13-2.42-1.01-3.8,1.46.81,2.91,1.62,4.37,2.43,1.13.92,2.18,1.98,3.68,2.34.41.36.82.72,1.23,1.08,2.57,1.16,5.15,2.31,7.73,3.47,1.38.95,2.85,1.56,4.57,1.24,2.02,1.79,5.51,2.63,6.57,1.14,1.52-2.13,2.71-.95,4.08-1.07-.3.72-.6,1.45-.89,2.17-.95,1.12-1.87,2.25-2.3,3.69Z"/>
      <path class="cls-8" d="M585.08,108.63c.03-.68.05-1.36.08-2.04.85.66.51,1.59.58,2.43.03.37-.15.53-.43.31-.16-.13-.16-.46-.23-.7Z"/>
      <path class="cls-8" d="M583.89,115.11c.16.22.37.4.35.53-.06.31-.15.75-.38.87-.37.21-.68,0-.49-.49.12-.31.32-.58.52-.91Z"/>
      <path class="cls-8" d="M584.66,113.28c-.4-.56-.49-1.42-.02-1.59.52-.2.34.6.35.98,0,.2-.2.4-.32.61Z"/>
      <path class="cls-11" d="M621.01,140.11c1.61-5.58,3.75-11.03,4.59-16.82,1.79-12.21,1.32-24.26-2.57-36.06-.27-.82-.39-1.68-.58-2.52,1.77.66,3.19,2.26,3.31,3.71.56,7.2,5.38,12.94,6.27,20.11,1.41,11.39.98,22.43-3.18,33.2-.87,2.25-2.5,3.99-4.27,5.53-.68.59-1.65,1.35-2.69.62-1.14-.79-.43-1.81-.09-2.68.35-.91,1-1.72,1.3-2.64.6-1.83-.33-2.53-2.08-2.44Z"/>
      <path class="cls-11" d="M622.49,84.73c-.44-.11-.6-.4-.5-.83.17.28.34.55.5.83Z"/>
      <path class="cls-9" d="M603.8,96.65c-1.98-1.86-4.25-3.3-5.3-6.15-1.13-3.06-3.53-2.98-5.55-.47-.87,1.08-1.67,2.51-3.25,2.9-.45-1.48-1.05-2.93-.91-4.52.61-2.05.38-4.95,3.33-5.1,2.91-.15,5.67.4,7.45,3.52,1.07,1.88,1.91,4.19,4.09,5.32.05.25.11.49.16.74,0,1.25,0,2.5,0,3.75l-.02.02Z"/>
      <path class="cls-3" d="M598.83,150.96c-.12.36-.24.71-.36,1.07-.19.05-.39.1-.58.14-1.18-.18-2.51-.57-2-2.02,2.25-6.4-3.13-11.17-3.47-16.98.08-7.42.17-14.85.25-22.27,1.04,1.11.47,2.49.64,3.75,0,2.61-.02,5.22,0,7.83.02,2.12.39,3.87,3.17,2.51.79-.38,1.24-.07,1.24.68,0,4.14,5.53,5.31,5.21,9.65,0,.08,1.13.24,1.73.36-.66,4.78-3.11,8.93-4.68,13.39-.38.64-.77,1.27-1.15,1.91Z"/>
      <path class="cls-9" d="M593.31,114.64c-.18-1.26.39-2.64-.64-3.75-.96-2.64-.85-5.42-1-8.16,3,.73,3.17,2.93,2.69,5.93,2.58-1.97,4.21.11,6.14.92,3.51,1.45,4.69.62,4.2-3.02-.17-1.25-.17-2.28,1.43-2.44,1.12.44.5,1.45.71,2.19-.01,4.32.02,8.64-.08,12.96-.02.84.48,2.85-1.44,1.96-2.43-1.13-5.77-2.33-6.63-4.37-1.38-3.26-3.35-2.17-5.38-2.22Z"/>
      <path class="cls-11" d="M592.42,133.16c.34,5.82,5.72,10.58,3.47,16.98-.51,1.44.82,1.84,2,2.02-.14.55-.08,1.21-.77,1.46-1.37.12-2.57-1.06-4.08,1.07-1.06,1.49-4.55.65-6.57-1.14.08-.44.15-.89.23-1.33,1.19-1.58,1.97-3.32,2.19-5.3,2.3-4.3,2.07-9.25,3.53-13.76Z"/>
      <path class="cls-9" d="M590.87,98.1c1.68,1.29.74,3.06.84,4.64-1.11-1.4-.38-3.13-.84-4.64Z"/>
      <path class="cls-2" d="M593.31,114.64c2.04.05,4.01-1.04,5.38,2.22.86,2.05,4.2,3.24,6.63,4.37,1.93.89,1.42-1.12,1.44-1.96.1-4.32.07-8.64.08-12.96,1.59,5.94.94,12,.38,17.94-.36,3.82-.77,7.83-2.57,11.42-.6-.12-1.73-.28-1.73-.36.32-4.34-5.21-5.51-5.21-9.65,0-.75-.45-1.07-1.24-.68-2.78,1.35-3.15-.39-3.17-2.51-.02-2.61,0-5.22,0-7.83Z"/>
      <path class="cls-9" d="M605.93,102.64c-3.59-.97-1.6-3.93-2.14-6,0,0,.02-.02.02-.02.47.5.95.99,1.42,1.49-.48,1.62,1.01,2.93.7,4.52Z"/>
      <path class="cls-2" d="M605.24,98.12c-.47-.5-.95-.99-1.42-1.49,0-1.25,0-2.5,0-3.75.2.06.41.1.62.12-.09,1.76,1.41,3.28.8,5.12Z"/>
    </g>
  </g>
</svg>